<?xml version="1.0" encoding="UTF-8" standalone="no"?>
<!DOCTYPE svg PUBLIC "-//W3C//DTD SVG 1.1//EN"
 "http://www.w3.org/Graphics/SVG/1.1/DTD/svg11.dtd">
<!-- Generated by graphviz version 2.43.0 (0)
 -->
<!-- Title: sunsale Pages: 1 -->
<svg width="2412pt" height="1015pt"
 viewBox="0.00 0.00 2412.00 1015.00" xmlns="http://www.w3.org/2000/svg" xmlns:xlink="http://www.w3.org/1999/xlink">
<g id="graph0" class="graph" transform="scale(1 1) rotate(0) translate(36 979)">
<title>sunsale</title>
<polygon fill="#f8f9fa" stroke="transparent" points="-36,36 -36,-979 2376,-979 2376,36 -36,36"/>
<text text-anchor="middle" x="1170" y="-926.2" font-family="Helvetica,sans-Serif" font-size="16.00">sunSale Architecture</text>
<text text-anchor="middle" x="1170" y="-908.2" font-family="Helvetica,sans-Serif" font-size="16.00">custom_components/sun_sale/</text>
<g id="clust2" class="cluster">
<title>cluster_ha</title>
<polygon fill="#dce8f5" stroke="#4a90d9" points="1160,-460 1160,-891 1350,-891 1350,-460 1160,-460"/>
<text text-anchor="middle" x="1255" y="-874.2" font-family="Helvetica,sans-Serif" font-size="16.00" fill="#1a5276">HA Integration Layer</text>
</g>
<g id="clust3" class="cluster">
<title>cluster_orchestration</title>
<polygon fill="#d5f5e3" stroke="#27ae60" points="1389,-242 1389,-604 1699,-604 1699,-242 1389,-242"/>
<text text-anchor="middle" x="1544" y="-587.2" font-family="Helvetica,sans-Serif" font-size="16.00" fill="#1e8449">Orchestration Layer (HA&#45;dependent)</text>
</g>
<!-- nordpool -->
<g id="node1" class="node">
<title>nordpool</title>
<path fill="#e8e8e8" stroke="#aaaaaa" d="M1672.5,-701C1672.5,-701 1581.5,-701 1581.5,-701 1575.5,-701 1569.5,-695 1569.5,-689 1569.5,-689 1569.5,-677 1569.5,-677 1569.5,-671 1575.5,-665 1581.5,-665 1581.5,-665 1672.5,-665 1672.5,-665 1678.5,-665 1684.5,-671 1684.5,-677 1684.5,-677 1684.5,-689 1684.5,-689 1684.5,-695 1678.5,-701 1672.5,-701"/>
<text text-anchor="middle" x="1627" y="-686.2" font-family="Helvetica,sans-Serif" font-size="11.00" fill="#555555">Nordpool</text>
<text text-anchor="middle" x="1627" y="-674.2" font-family="Helvetica,sans-Serif" font-size="11.00" fill="#555555">sensor.nordpool_*</text>
</g>
<!-- coordinator -->
<g id="node10" class="node">
<title>coordinator</title>
<path fill="#a9dfbf" stroke="#1e8449" d="M1576.5,-544C1576.5,-544 1409.5,-544 1409.5,-544 1403.5,-544 1397.5,-538 1397.5,-532 1397.5,-532 1397.5,-440 1397.5,-440 1397.5,-434 1403.5,-428 1409.5,-428 1409.5,-428 1576.5,-428 1576.5,-428 1582.5,-428 1588.5,-434 1588.5,-440 1588.5,-440 1588.5,-532 1588.5,-532 1588.5,-538 1582.5,-544 1576.5,-544"/>
<text text-anchor="middle" x="1493" y="-531.2" font-family="Helvetica,sans-Serif" font-size="11.00">coordinator.py</text>
<text text-anchor="middle" x="1493" y="-519.2" font-family="Helvetica,sans-Serif" font-size="11.00">SunSaleCoordinator</text>
<text text-anchor="middle" x="1493" y="-507.2" font-family="Helvetica,sans-Serif" font-size="11.00">DataUpdateCoordinator (5 min)</text>
<text text-anchor="middle" x="1493" y="-495.2" font-family="Helvetica,sans-Serif" font-size="11.00">─────────────────────</text>
<text text-anchor="middle" x="1493" y="-483.2" font-family="Helvetica,sans-Serif" font-size="11.00">1. Read HA state</text>
<text text-anchor="middle" x="1493" y="-471.2" font-family="Helvetica,sans-Serif" font-size="11.00">2. Compute schedules</text>
<text text-anchor="middle" x="1493" y="-459.2" font-family="Helvetica,sans-Serif" font-size="11.00">3. Execute actions</text>
<text text-anchor="middle" x="1493" y="-447.2" font-family="Helvetica,sans-Serif" font-size="11.00">4. Learn capacity</text>
<text text-anchor="middle" x="1493" y="-435.2" font-family="Helvetica,sans-Serif" font-size="11.00">5. Build dashboard</text>
</g>
<!-- nordpool&#45;&gt;coordinator -->
<g id="edge23" class="edge">
<title>nordpool&#45;&gt;coordinator</title>
<path fill="none" stroke="#aaaaaa" stroke-dasharray="5,2" d="M1615.11,-664.7C1597.95,-639.72 1565.31,-592.22 1538.09,-552.61"/>
<polygon fill="#aaaaaa" stroke="#aaaaaa" points="1540.92,-550.55 1532.37,-544.29 1535.15,-554.51 1540.92,-550.55"/>
<text text-anchor="middle" x="1597" y="-614.8" font-family="Helvetica,sans-Serif" font-size="9.00">prices</text>
</g>
<!-- solar_src -->
<g id="node2" class="node">
<title>solar_src</title>
<path fill="#e8e8e8" stroke="#aaaaaa" d="M1514.5,-705C1514.5,-705 1387.5,-705 1387.5,-705 1381.5,-705 1375.5,-699 1375.5,-693 1375.5,-693 1375.5,-673 1375.5,-673 1375.5,-667 1381.5,-661 1387.5,-661 1387.5,-661 1514.5,-661 1514.5,-661 1520.5,-661 1526.5,-667 1526.5,-673 1526.5,-673 1526.5,-693 1526.5,-693 1526.5,-699 1520.5,-705 1514.5,-705"/>
<text text-anchor="middle" x="1451" y="-692.2" font-family="Helvetica,sans-Serif" font-size="11.00" fill="#555555">Solar Forecast</text>
<text text-anchor="middle" x="1451" y="-680.2" font-family="Helvetica,sans-Serif" font-size="11.00" fill="#555555">(Forecast.Solar / Solcast</text>
<text text-anchor="middle" x="1451" y="-668.2" font-family="Helvetica,sans-Serif" font-size="11.00" fill="#555555">/ Open Meteo)</text>
</g>
<!-- solar_src&#45;&gt;coordinator -->
<g id="edge24" class="edge">
<title>solar_src&#45;&gt;coordinator</title>
<path fill="none" stroke="#aaaaaa" stroke-dasharray="5,2" d="M1455.57,-660.76C1461.06,-635.3 1470.52,-591.39 1478.55,-554.08"/>
<polygon fill="#aaaaaa" stroke="#aaaaaa" points="1481.98,-554.77 1480.67,-544.26 1475.14,-553.29 1481.98,-554.77"/>
<text text-anchor="middle" x="1483.5" y="-614.8" font-family="Helvetica,sans-Serif" font-size="9.00">forecast</text>
</g>
<!-- inverter_hw -->
<g id="node3" class="node">
<title>inverter_hw</title>
<path fill="#e8e8e8" stroke="#aaaaaa" d="M2032.5,-705C2032.5,-705 1899.5,-705 1899.5,-705 1893.5,-705 1887.5,-699 1887.5,-693 1887.5,-693 1887.5,-673 1887.5,-673 1887.5,-667 1893.5,-661 1899.5,-661 1899.5,-661 2032.5,-661 2032.5,-661 2038.5,-661 2044.5,-667 2044.5,-673 2044.5,-673 2044.5,-693 2044.5,-693 2044.5,-699 2038.5,-705 2032.5,-705"/>
<text text-anchor="middle" x="1966" y="-692.2" font-family="Helvetica,sans-Serif" font-size="11.00" fill="#555555">Inverter HW</text>
<text text-anchor="middle" x="1966" y="-680.2" font-family="Helvetica,sans-Serif" font-size="11.00" fill="#555555">(Solis, Huawei, SolarEdge</text>
<text text-anchor="middle" x="1966" y="-668.2" font-family="Helvetica,sans-Serif" font-size="11.00" fill="#555555">GoodWe, Generic)</text>
</g>
<!-- inverter -->
<g id="node12" class="node">
<title>inverter</title>
<path fill="#fad7a0" stroke="#ca6f1e" d="M1977,-336C1977,-336 1827,-336 1827,-336 1821,-336 1815,-330 1815,-324 1815,-324 1815,-232 1815,-232 1815,-226 1821,-220 1827,-220 1827,-220 1977,-220 1977,-220 1983,-220 1989,-226 1989,-232 1989,-232 1989,-324 1989,-324 1989,-330 1983,-336 1977,-336"/>
<text text-anchor="middle" x="1902" y="-323.2" font-family="Helvetica,sans-Serif" font-size="11.00">inverter.py</text>
<text text-anchor="middle" x="1902" y="-311.2" font-family="Helvetica,sans-Serif" font-size="11.00">InverterController</text>
<text text-anchor="middle" x="1902" y="-299.2" font-family="Helvetica,sans-Serif" font-size="11.00">─────────────────</text>
<text text-anchor="middle" x="1902" y="-287.2" font-family="Helvetica,sans-Serif" font-size="11.00">async_charge_from_grid(kw)</text>
<text text-anchor="middle" x="1902" y="-275.2" font-family="Helvetica,sans-Serif" font-size="11.00">async_discharge_to_grid(kw)</text>
<text text-anchor="middle" x="1902" y="-263.2" font-family="Helvetica,sans-Serif" font-size="11.00">async_idle()</text>
<text text-anchor="middle" x="1902" y="-251.2" font-family="Helvetica,sans-Serif" font-size="11.00">get_battery_soc() → float</text>
<text text-anchor="middle" x="1902" y="-239.2" font-family="Helvetica,sans-Serif" font-size="11.00">get_battery_power() → float</text>
<text text-anchor="middle" x="1902" y="-227.2" font-family="Helvetica,sans-Serif" font-size="11.00">get_grid_power() → float</text>
</g>
<!-- inverter_hw&#45;&gt;inverter -->
<g id="edge25" class="edge">
<title>inverter_hw&#45;&gt;inverter</title>
<path fill="none" stroke="#aaaaaa" stroke-dasharray="5,2" d="M1975.92,-660.83C1998.49,-609.45 2048.5,-475.01 2005,-375 2000.11,-363.77 1993.2,-353.26 1985.23,-343.61"/>
<polygon fill="#aaaaaa" stroke="#aaaaaa" points="1987.85,-341.29 1978.63,-336.06 1982.58,-345.9 1987.85,-341.29"/>
<text text-anchor="middle" x="2048" y="-483.8" font-family="Helvetica,sans-Serif" font-size="9.00">SoC, power</text>
</g>
<!-- ev_hw -->
<g id="node4" class="node">
<title>ev_hw</title>
<path fill="#e8e8e8" stroke="#aaaaaa" d="M2300.5,-705C2300.5,-705 2205.5,-705 2205.5,-705 2199.5,-705 2193.5,-699 2193.5,-693 2193.5,-693 2193.5,-673 2193.5,-673 2193.5,-667 2199.5,-661 2205.5,-661 2205.5,-661 2300.5,-661 2300.5,-661 2306.5,-661 2312.5,-667 2312.5,-673 2312.5,-673 2312.5,-693 2312.5,-693 2312.5,-699 2306.5,-705 2300.5,-705"/>
<text text-anchor="middle" x="2253" y="-692.2" font-family="Helvetica,sans-Serif" font-size="11.00" fill="#555555">EV Charger HW</text>
<text text-anchor="middle" x="2253" y="-680.2" font-family="Helvetica,sans-Serif" font-size="11.00" fill="#555555">(OpenEVSE, Easee</text>
<text text-anchor="middle" x="2253" y="-668.2" font-family="Helvetica,sans-Serif" font-size="11.00" fill="#555555">Wallbox, Generic)</text>
</g>
<!-- ev_charger -->
<g id="node13" class="node">
<title>ev_charger</title>
<path fill="#fad7a0" stroke="#ca6f1e" d="M2212,-324C2212,-324 2076,-324 2076,-324 2070,-324 2064,-318 2064,-312 2064,-312 2064,-244 2064,-244 2064,-238 2070,-232 2076,-232 2076,-232 2212,-232 2212,-232 2218,-232 2224,-238 2224,-244 2224,-244 2224,-312 2224,-312 2224,-318 2218,-324 2212,-324"/>
<text text-anchor="middle" x="2144" y="-311.2" font-family="Helvetica,sans-Serif" font-size="11.00">ev_charger.py</text>
<text text-anchor="middle" x="2144" y="-299.2" font-family="Helvetica,sans-Serif" font-size="11.00">EVChargerController</text>
<text text-anchor="middle" x="2144" y="-287.2" font-family="Helvetica,sans-Serif" font-size="11.00">─────────────────</text>
<text text-anchor="middle" x="2144" y="-275.2" font-family="Helvetica,sans-Serif" font-size="11.00">async_start_charging(kw)</text>
<text text-anchor="middle" x="2144" y="-263.2" font-family="Helvetica,sans-Serif" font-size="11.00">async_stop_charging()</text>
<text text-anchor="middle" x="2144" y="-251.2" font-family="Helvetica,sans-Serif" font-size="11.00">is_plugged_in() → bool</text>
<text text-anchor="middle" x="2144" y="-239.2" font-family="Helvetica,sans-Serif" font-size="11.00">get_ev_soc() → float|None</text>
</g>
<!-- ev_hw&#45;&gt;ev_charger -->
<g id="edge26" class="edge">
<title>ev_hw&#45;&gt;ev_charger</title>
<path fill="none" stroke="#aaaaaa" stroke-dasharray="5,2" d="M2223.41,-660.92C2206.17,-646.89 2185.77,-626.87 2175,-604 2133.84,-516.64 2133.74,-401.6 2138.27,-334.42"/>
<polygon fill="#aaaaaa" stroke="#aaaaaa" points="2141.79,-334.29 2139.03,-324.06 2134.81,-333.78 2141.79,-334.29"/>
<text text-anchor="middle" x="2210" y="-483.8" font-family="Helvetica,sans-Serif" font-size="9.00">plug state, SoC</text>
</g>
<!-- init -->
<g id="node5" class="node">
<title>init</title>
<path fill="#aed6f1" stroke="#2980b9" d="M1320,-711C1320,-711 1190,-711 1190,-711 1184,-711 1178,-705 1178,-699 1178,-699 1178,-667 1178,-667 1178,-661 1184,-655 1190,-655 1190,-655 1320,-655 1320,-655 1326,-655 1332,-661 1332,-667 1332,-667 1332,-699 1332,-699 1332,-705 1326,-711 1320,-711"/>
<text text-anchor="middle" x="1255" y="-698.2" font-family="Helvetica,sans-Serif" font-size="11.00">__init__.py</text>
<text text-anchor="middle" x="1255" y="-686.2" font-family="Helvetica,sans-Serif" font-size="11.00">async_setup_entry()</text>
<text text-anchor="middle" x="1255" y="-674.2" font-family="Helvetica,sans-Serif" font-size="11.00">async_unload_entry()</text>
<text text-anchor="middle" x="1255" y="-662.2" font-family="Helvetica,sans-Serif" font-size="11.00">force_recalculate service</text>
</g>
<!-- debug_view -->
<g id="node7" class="node">
<title>debug_view</title>
<path fill="#aed6f1" stroke="#2980b9" d="M1318.5,-504C1318.5,-504 1191.5,-504 1191.5,-504 1185.5,-504 1179.5,-498 1179.5,-492 1179.5,-492 1179.5,-480 1179.5,-480 1179.5,-474 1185.5,-468 1191.5,-468 1191.5,-468 1318.5,-468 1318.5,-468 1324.5,-468 1330.5,-474 1330.5,-480 1330.5,-480 1330.5,-492 1330.5,-492 1330.5,-498 1324.5,-504 1318.5,-504"/>
<text text-anchor="middle" x="1255" y="-489.2" font-family="Helvetica,sans-Serif" font-size="11.00">debug_view.py</text>
<text text-anchor="middle" x="1255" y="-477.2" font-family="Helvetica,sans-Serif" font-size="11.00">GET /api/sun_sale/debug</text>
</g>
<!-- init&#45;&gt;debug_view -->
<g id="edge3" class="edge">
<title>init&#45;&gt;debug_view</title>
<path fill="none" stroke="#2980b9" d="M1255,-654.89C1255,-617.74 1255,-551.41 1255,-514.21"/>
<polygon fill="#2980b9" stroke="#2980b9" points="1258.5,-514.1 1255,-504.1 1251.5,-514.1 1258.5,-514.1"/>
<text text-anchor="middle" x="1275" y="-614.8" font-family="Helvetica,sans-Serif" font-size="9.00">registers</text>
</g>
<!-- init&#45;&gt;coordinator -->
<g id="edge2" class="edge">
<title>init&#45;&gt;coordinator</title>
<path fill="none" stroke="#2980b9" stroke-width="2" d="M1292.99,-654.94C1313.2,-640.26 1338.28,-621.57 1360,-604 1380.78,-587.19 1402.77,-568.31 1422.77,-550.71"/>
<polygon fill="#2980b9" stroke="#2980b9" stroke-width="2" points="1425.15,-553.27 1430.32,-544.03 1420.51,-548.03 1425.15,-553.27"/>
<text text-anchor="middle" x="1365" y="-614.8" font-family="Helvetica,sans-Serif" font-size="9.00">creates</text>
</g>
<!-- config_flow -->
<g id="node6" class="node">
<title>config_flow</title>
<path fill="#aed6f1" stroke="#2980b9" d="M1329.5,-831C1329.5,-831 1180.5,-831 1180.5,-831 1174.5,-831 1168.5,-825 1168.5,-819 1168.5,-819 1168.5,-799 1168.5,-799 1168.5,-793 1174.5,-787 1180.5,-787 1180.5,-787 1329.5,-787 1329.5,-787 1335.5,-787 1341.5,-793 1341.5,-799 1341.5,-799 1341.5,-819 1341.5,-819 1341.5,-825 1335.5,-831 1329.5,-831"/>
<text text-anchor="middle" x="1255" y="-818.2" font-family="Helvetica,sans-Serif" font-size="11.00">config_flow.py</text>
<text text-anchor="middle" x="1255" y="-806.2" font-family="Helvetica,sans-Serif" font-size="11.00">SunSaleConfigFlow (5 steps)</text>
<text text-anchor="middle" x="1255" y="-794.2" font-family="Helvetica,sans-Serif" font-size="11.00">SunSaleOptionsFlow</text>
</g>
<!-- config_flow&#45;&gt;init -->
<g id="edge1" class="edge">
<title>config_flow&#45;&gt;init</title>
<path fill="none" stroke="#888888" stroke-dasharray="5,2" d="M1255,-786.97C1255,-769.03 1255,-742.82 1255,-721.34"/>
<polygon fill="#888888" stroke="#888888" points="1258.5,-721.22 1255,-711.22 1251.5,-721.22 1258.5,-721.22"/>
<text text-anchor="middle" x="1273" y="-746.8" font-family="Helvetica,sans-Serif" font-size="9.00">triggers</text>
</g>
<!-- models -->
<g id="node14" class="node">
<title>models</title>
<path fill="#f5b7b1" stroke="#a93226" d="M1067.5,-128C1067.5,-128 904.5,-128 904.5,-128 898.5,-128 892.5,-122 892.5,-116 892.5,-116 892.5,-12 892.5,-12 892.5,-6 898.5,0 904.5,0 904.5,0 1067.5,0 1067.5,0 1073.5,0 1079.5,-6 1079.5,-12 1079.5,-12 1079.5,-116 1079.5,-116 1079.5,-122 1073.5,-128 1067.5,-128"/>
<text text-anchor="middle" x="986" y="-115.2" font-family="Helvetica,sans-Serif" font-size="11.00">models.py</text>
<text text-anchor="middle" x="986" y="-103.2" font-family="Helvetica,sans-Serif" font-size="11.00">Frozen dataclasses</text>
<text text-anchor="middle" x="986" y="-91.2" font-family="Helvetica,sans-Serif" font-size="11.00">─────────────────</text>
<text text-anchor="middle" x="986" y="-79.2" font-family="Helvetica,sans-Serif" font-size="11.00">HourlyPrice, TariffResult</text>
<text text-anchor="middle" x="986" y="-67.2" font-family="Helvetica,sans-Serif" font-size="11.00">SolarForecast, ScheduleSlot</text>
<text text-anchor="middle" x="986" y="-55.2" font-family="Helvetica,sans-Serif" font-size="11.00">Schedule, BatteryConfig</text>
<text text-anchor="middle" x="986" y="-43.2" font-family="Helvetica,sans-Serif" font-size="11.00">BatteryState, EVChargerConfig</text>
<text text-anchor="middle" x="986" y="-31.2" font-family="Helvetica,sans-Serif" font-size="11.00">EVChargerState, EVSchedule</text>
<text text-anchor="middle" x="986" y="-19.2" font-family="Helvetica,sans-Serif" font-size="11.00">CapacityObservation</text>
<text text-anchor="middle" x="986" y="-7.2" font-family="Helvetica,sans-Serif" font-size="11.00">Action (Enum)</text>
</g>
<!-- config_flow&#45;&gt;models -->
<g id="edge28" class="edge">
<title>config_flow&#45;&gt;models</title>
<path fill="none" stroke="#cccccc" stroke-dasharray="1,5" d="M1168.24,-808.53C884.17,-809.15 0,-801.61 0,-684 0,-684 0,-684 0,-277 0,-98.04 628.68,-69.71 882.03,-65.56"/>
<polygon fill="#cccccc" stroke="#cccccc" points="882.41,-69.05 892.35,-65.4 882.3,-62.05 882.41,-69.05"/>
</g>
<!-- const -->
<g id="node19" class="node">
<title>const</title>
<path fill="#f5b7b1" stroke="#a93226" d="M1823,-92C1823,-92 1677,-92 1677,-92 1671,-92 1665,-86 1665,-80 1665,-80 1665,-48 1665,-48 1665,-42 1671,-36 1677,-36 1677,-36 1823,-36 1823,-36 1829,-36 1835,-42 1835,-48 1835,-48 1835,-80 1835,-80 1835,-86 1829,-92 1823,-92"/>
<text text-anchor="middle" x="1750" y="-79.2" font-family="Helvetica,sans-Serif" font-size="11.00">const.py</text>
<text text-anchor="middle" x="1750" y="-67.2" font-family="Helvetica,sans-Serif" font-size="11.00">DOMAIN, UPDATE_INTERVAL</text>
<text text-anchor="middle" x="1750" y="-55.2" font-family="Helvetica,sans-Serif" font-size="11.00">conf keys, defaults</text>
<text text-anchor="middle" x="1750" y="-43.2" font-family="Helvetica,sans-Serif" font-size="11.00">STORAGE_KEY_CAPACITY</text>
</g>
<!-- config_flow&#45;&gt;const -->
<g id="edge27" class="edge">
<title>config_flow&#45;&gt;const</title>
<path fill="none" stroke="#cccccc" stroke-dasharray="1,5" d="M1341.51,-804.01C1483.4,-795.08 1750,-767.22 1750,-684 1750,-684 1750,-684 1750,-277 1750,-215.76 1750,-144.56 1750,-102.22"/>
<polygon fill="#cccccc" stroke="#cccccc" points="1753.5,-102.11 1750,-92.11 1746.5,-102.11 1753.5,-102.11"/>
</g>
<!-- sensor -->
<g id="node8" class="node">
<title>sensor</title>
<path fill="#aed6f1" stroke="#2980b9" d="M230.5,-306C230.5,-306 77.5,-306 77.5,-306 71.5,-306 65.5,-300 65.5,-294 65.5,-294 65.5,-262 65.5,-262 65.5,-256 71.5,-250 77.5,-250 77.5,-250 230.5,-250 230.5,-250 236.5,-250 242.5,-256 242.5,-262 242.5,-262 242.5,-294 242.5,-294 242.5,-300 236.5,-306 230.5,-306"/>
<text text-anchor="middle" x="154" y="-293.2" font-family="Helvetica,sans-Serif" font-size="11.00">sensor.py</text>
<text text-anchor="middle" x="154" y="-281.2" font-family="Helvetica,sans-Serif" font-size="11.00">13 CoordinatorEntity sensors</text>
<text text-anchor="middle" x="154" y="-269.2" font-family="Helvetica,sans-Serif" font-size="11.00">(actions, prices, profit,</text>
<text text-anchor="middle" x="154" y="-257.2" font-family="Helvetica,sans-Serif" font-size="11.00">capacity, EV, dashboard)</text>
</g>
<!-- switch_ent -->
<g id="node9" class="node">
<title>switch_ent</title>
<path fill="#aed6f1" stroke="#2980b9" d="M450.5,-300C450.5,-300 297.5,-300 297.5,-300 291.5,-300 285.5,-294 285.5,-288 285.5,-288 285.5,-268 285.5,-268 285.5,-262 291.5,-256 297.5,-256 297.5,-256 450.5,-256 450.5,-256 456.5,-256 462.5,-262 462.5,-268 462.5,-268 462.5,-288 462.5,-288 462.5,-294 456.5,-300 450.5,-300"/>
<text text-anchor="middle" x="374" y="-287.2" font-family="Helvetica,sans-Serif" font-size="11.00">switch.py</text>
<text text-anchor="middle" x="374" y="-275.2" font-family="Helvetica,sans-Serif" font-size="11.00">AutomationSwitch</text>
<text text-anchor="middle" x="374" y="-263.2" font-family="Helvetica,sans-Serif" font-size="11.00">(RestoreEntity, defaults OFF)</text>
</g>
<!-- coordinator&#45;&gt;sensor -->
<g id="edge4" class="edge">
<title>coordinator&#45;&gt;sensor</title>
<path fill="none" stroke="#27ae60" stroke-width="2" d="M1397.42,-439.14C1385.05,-434.67 1372.38,-430.78 1360,-428 1162.33,-383.68 649.07,-426.8 449,-395 364.53,-381.58 342.79,-375.27 264,-342 243.79,-333.47 222.64,-322.02 204.35,-311.23"/>
<polygon fill="#27ae60" stroke="#27ae60" stroke-width="2" points="205.99,-308.14 195.61,-306.01 202.39,-314.15 205.99,-308.14"/>
<text text-anchor="middle" x="486.5" y="-382.8" font-family="Helvetica,sans-Serif" font-size="9.00">coordinator.data</text>
</g>
<!-- coordinator&#45;&gt;switch_ent -->
<g id="edge5" class="edge">
<title>coordinator&#45;&gt;switch_ent</title>
<path fill="none" stroke="#27ae60" d="M1397.4,-439.22C1385.03,-434.74 1372.37,-430.82 1360,-428 1026.88,-352.14 922.91,-480 592,-395 523.58,-377.43 452.92,-334.42 411.25,-306"/>
<polygon fill="#27ae60" stroke="#27ae60" points="413.03,-302.97 402.81,-300.17 409.05,-308.73 413.03,-302.97"/>
<text text-anchor="middle" x="638.5" y="-382.8" font-family="Helvetica,sans-Serif" font-size="9.00">automation_enabled</text>
</g>
<!-- dashboard -->
<g id="node11" class="node">
<title>dashboard</title>
<path fill="#a9dfbf" stroke="#1e8449" d="M1586,-306C1586,-306 1436,-306 1436,-306 1430,-306 1424,-300 1424,-294 1424,-294 1424,-262 1424,-262 1424,-256 1430,-250 1436,-250 1436,-250 1586,-250 1586,-250 1592,-250 1598,-256 1598,-262 1598,-262 1598,-294 1598,-294 1598,-300 1592,-306 1586,-306"/>
<text text-anchor="middle" x="1511" y="-293.2" font-family="Helvetica,sans-Serif" font-size="11.00">dashboard.py</text>
<text text-anchor="middle" x="1511" y="-281.2" font-family="Helvetica,sans-Serif" font-size="11.00">build_future_slots()</text>
<text text-anchor="middle" x="1511" y="-269.2" font-family="Helvetica,sans-Serif" font-size="11.00">build_solar_frozen_forecast()</text>
<text text-anchor="middle" x="1511" y="-257.2" font-family="Helvetica,sans-Serif" font-size="11.00">15&#45;min slot visualization</text>
</g>
<!-- coordinator&#45;&gt;dashboard -->
<g id="edge6" class="edge">
<title>coordinator&#45;&gt;dashboard</title>
<path fill="none" stroke="#27ae60" d="M1497.99,-427.89C1501.11,-392.16 1505.04,-347.17 1507.76,-316.04"/>
<polygon fill="#27ae60" stroke="#27ae60" points="1511.25,-316.32 1508.64,-306.05 1504.28,-315.71 1511.25,-316.32"/>
<text text-anchor="middle" x="1525" y="-382.8" font-family="Helvetica,sans-Serif" font-size="9.00">build slots</text>
</g>
<!-- coordinator&#45;&gt;inverter -->
<g id="edge7" class="edge">
<title>coordinator&#45;&gt;inverter</title>
<path fill="none" stroke="#e67e22" stroke-width="2" d="M1588.63,-436.83C1654.02,-403.9 1740.37,-360.41 1805.86,-327.42"/>
<polygon fill="#e67e22" stroke="#e67e22" stroke-width="2" points="1807.6,-330.46 1814.96,-322.84 1804.46,-324.21 1807.6,-330.46"/>
<text text-anchor="middle" x="1742.5" y="-382.8" font-family="Helvetica,sans-Serif" font-size="9.00">execute action</text>
</g>
<!-- coordinator&#45;&gt;ev_charger -->
<g id="edge8" class="edge">
<title>coordinator&#45;&gt;ev_charger</title>
<path fill="none" stroke="#e67e22" stroke-width="2" d="M1588.61,-463.86C1693.76,-439.4 1866.93,-395.55 2011,-342 2025.24,-336.71 2040.05,-330.47 2054.38,-324.02"/>
<polygon fill="#e67e22" stroke="#e67e22" stroke-width="2" points="2056.08,-327.09 2063.72,-319.76 2053.17,-320.72 2056.08,-327.09"/>
<text text-anchor="middle" x="1954" y="-382.8" font-family="Helvetica,sans-Serif" font-size="9.00">execute EV action</text>
</g>
<!-- tariff -->
<g id="node15" class="node">
<title>tariff</title>
<path fill="#f5b7b1" stroke="#a93226" d="M985.5,-318C985.5,-318 842.5,-318 842.5,-318 836.5,-318 830.5,-312 830.5,-306 830.5,-306 830.5,-250 830.5,-250 830.5,-244 836.5,-238 842.5,-238 842.5,-238 985.5,-238 985.5,-238 991.5,-238 997.5,-244 997.5,-250 997.5,-250 997.5,-306 997.5,-306 997.5,-312 991.5,-318 985.5,-318"/>
<text text-anchor="middle" x="914" y="-305.2" font-family="Helvetica,sans-Serif" font-size="11.00">tariff.py</text>
<text text-anchor="middle" x="914" y="-293.2" font-family="Helvetica,sans-Serif" font-size="11.00">buy_price(spot, cfg) → float</text>
<text text-anchor="middle" x="914" y="-281.2" font-family="Helvetica,sans-Serif" font-size="11.00">sell_price(spot, cfg) → float</text>
<text text-anchor="middle" x="914" y="-269.2" font-family="Helvetica,sans-Serif" font-size="11.00">compute_tariffs(</text>
<text text-anchor="middle" x="914" y="-257.2" font-family="Helvetica,sans-Serif" font-size="11.00"> &#160;prices, cfg</text>
<text text-anchor="middle" x="914" y="-245.2" font-family="Helvetica,sans-Serif" font-size="11.00">) → list[TariffResult]</text>
</g>
<!-- coordinator&#45;&gt;tariff -->
<g id="edge9" class="edge">
<title>coordinator&#45;&gt;tariff</title>
<path fill="none" stroke="#c0392b" d="M1397.34,-439.47C1384.99,-434.94 1372.34,-430.94 1360,-428 1303.69,-414.57 879.62,-437.21 840,-395 820.53,-374.25 835.2,-347.7 856.45,-325.24"/>
<polygon fill="#c0392b" stroke="#c0392b" points="858.98,-327.66 863.55,-318.1 854.01,-322.72 858.98,-327.66"/>
<text text-anchor="middle" x="879.5" y="-382.8" font-family="Helvetica,sans-Serif" font-size="9.00">compute_tariffs()</text>
</g>
<!-- battery -->
<g id="node16" class="node">
<title>battery</title>
<path fill="#f5b7b1" stroke="#a93226" d="M1369,-342C1369,-342 1227,-342 1227,-342 1221,-342 1215,-336 1215,-330 1215,-330 1215,-226 1215,-226 1215,-220 1221,-214 1227,-214 1227,-214 1369,-214 1369,-214 1375,-214 1381,-220 1381,-226 1381,-226 1381,-330 1381,-330 1381,-336 1375,-342 1369,-342"/>
<text text-anchor="middle" x="1298" y="-329.2" font-family="Helvetica,sans-Serif" font-size="11.00">battery.py</text>
<text text-anchor="middle" x="1298" y="-317.2" font-family="Helvetica,sans-Serif" font-size="11.00">degradation_cost_per_kwh(</text>
<text text-anchor="middle" x="1298" y="-305.2" font-family="Helvetica,sans-Serif" font-size="11.00"> &#160;config, state</text>
<text text-anchor="middle" x="1298" y="-293.2" font-family="Helvetica,sans-Serif" font-size="11.00">) → float</text>
<text text-anchor="middle" x="1298" y="-281.2" font-family="Helvetica,sans-Serif" font-size="11.00">trade_profit_per_kwh(</text>
<text text-anchor="middle" x="1298" y="-269.2" font-family="Helvetica,sans-Serif" font-size="11.00"> &#160;buy, sell, deg, eff</text>
<text text-anchor="middle" x="1298" y="-257.2" font-family="Helvetica,sans-Serif" font-size="11.00">) → float</text>
<text text-anchor="middle" x="1298" y="-245.2" font-family="Helvetica,sans-Serif" font-size="11.00">CapacityEstimator</text>
<text text-anchor="middle" x="1298" y="-233.2" font-family="Helvetica,sans-Serif" font-size="11.00"> &#160;.add_observation()</text>
<text text-anchor="middle" x="1298" y="-221.2" font-family="Helvetica,sans-Serif" font-size="11.00"> &#160;.estimated_capacity_kwh</text>
</g>
<!-- coordinator&#45;&gt;battery -->
<g id="edge10" class="edge">
<title>coordinator&#45;&gt;battery</title>
<path fill="none" stroke="#c0392b" d="M1435.68,-427.72C1425.07,-416.92 1414.14,-405.67 1404,-395 1390.23,-380.52 1375.67,-364.83 1361.89,-349.81"/>
<polygon fill="#c0392b" stroke="#c0392b" points="1364.1,-347.04 1354.76,-342.03 1358.94,-351.77 1364.1,-347.04"/>
<text text-anchor="middle" x="1447" y="-387.8" font-family="Helvetica,sans-Serif" font-size="9.00">degradation_cost()</text>
<text text-anchor="middle" x="1447" y="-377.8" font-family="Helvetica,sans-Serif" font-size="9.00">add_observation()</text>
</g>
<!-- optimizer -->
<g id="node17" class="node">
<title>optimizer</title>
<path fill="#f5b7b1" stroke="#a93226" d="M672,-342C672,-342 518,-342 518,-342 512,-342 506,-336 506,-330 506,-330 506,-226 506,-226 506,-220 512,-214 518,-214 518,-214 672,-214 672,-214 678,-214 684,-220 684,-226 684,-226 684,-330 684,-330 684,-336 678,-342 672,-342"/>
<text text-anchor="middle" x="595" y="-329.2" font-family="Helvetica,sans-Serif" font-size="11.00">optimizer.py</text>
<text text-anchor="middle" x="595" y="-317.2" font-family="Helvetica,sans-Serif" font-size="11.00">optimize_schedule(</text>
<text text-anchor="middle" x="595" y="-305.2" font-family="Helvetica,sans-Serif" font-size="11.00"> &#160;tariffs, solar,</text>
<text text-anchor="middle" x="595" y="-293.2" font-family="Helvetica,sans-Serif" font-size="11.00"> &#160;battery_cfg, battery_state,</text>
<text text-anchor="middle" x="595" y="-281.2" font-family="Helvetica,sans-Serif" font-size="11.00"> &#160;degradation_cost, now</text>
<text text-anchor="middle" x="595" y="-269.2" font-family="Helvetica,sans-Serif" font-size="11.00">) → Schedule</text>
<text text-anchor="middle" x="595" y="-257.2" font-family="Helvetica,sans-Serif" font-size="11.00">─────────────────</text>
<text text-anchor="middle" x="595" y="-245.2" font-family="Helvetica,sans-Serif" font-size="11.00">Greedy pair&#45;matching:</text>
<text text-anchor="middle" x="595" y="-233.2" font-family="Helvetica,sans-Serif" font-size="11.00">rank (buy,sell) by profit,</text>
<text text-anchor="middle" x="595" y="-221.2" font-family="Helvetica,sans-Serif" font-size="11.00">forward&#45;simulate SoC bounds</text>
</g>
<!-- coordinator&#45;&gt;optimizer -->
<g id="edge11" class="edge">
<title>coordinator&#45;&gt;optimizer</title>
<path fill="none" stroke="#c0392b" stroke-width="2" d="M1397.37,-439.34C1385.01,-434.83 1372.36,-430.88 1360,-428 1223.46,-396.23 860.13,-447.14 730,-395 704.07,-384.61 679.62,-367.09 658.84,-348.78"/>
<polygon fill="#c0392b" stroke="#c0392b" stroke-width="2" points="661.11,-346.12 651.35,-342.01 656.42,-351.31 661.11,-346.12"/>
<text text-anchor="middle" x="775.5" y="-382.8" font-family="Helvetica,sans-Serif" font-size="9.00">optimize_schedule()</text>
</g>
<!-- ev_sched -->
<g id="node18" class="node">
<title>ev_sched</title>
<path fill="#f5b7b1" stroke="#a93226" d="M1159.5,-330C1159.5,-330 1052.5,-330 1052.5,-330 1046.5,-330 1040.5,-324 1040.5,-318 1040.5,-318 1040.5,-238 1040.5,-238 1040.5,-232 1046.5,-226 1052.5,-226 1052.5,-226 1159.5,-226 1159.5,-226 1165.5,-226 1171.5,-232 1171.5,-238 1171.5,-238 1171.5,-318 1171.5,-318 1171.5,-324 1165.5,-330 1159.5,-330"/>
<text text-anchor="middle" x="1106" y="-317.2" font-family="Helvetica,sans-Serif" font-size="11.00">ev_scheduler.py</text>
<text text-anchor="middle" x="1106" y="-305.2" font-family="Helvetica,sans-Serif" font-size="11.00">schedule_ev_charge(</text>
<text text-anchor="middle" x="1106" y="-293.2" font-family="Helvetica,sans-Serif" font-size="11.00"> &#160;tariffs, ev_cfg,</text>
<text text-anchor="middle" x="1106" y="-281.2" font-family="Helvetica,sans-Serif" font-size="11.00"> &#160;ev_state, now</text>
<text text-anchor="middle" x="1106" y="-269.2" font-family="Helvetica,sans-Serif" font-size="11.00">) → EVSchedule</text>
<text text-anchor="middle" x="1106" y="-257.2" font-family="Helvetica,sans-Serif" font-size="11.00">─────────────────</text>
<text text-anchor="middle" x="1106" y="-245.2" font-family="Helvetica,sans-Serif" font-size="11.00">Cheapest N hours</text>
<text text-anchor="middle" x="1106" y="-233.2" font-family="Helvetica,sans-Serif" font-size="11.00">before departure</text>
</g>
<!-- coordinator&#45;&gt;ev_sched -->
<g id="edge12" class="edge">
<title>coordinator&#45;&gt;ev_sched</title>
<path fill="none" stroke="#c0392b" d="M1397.3,-439.63C1384.95,-435.08 1372.32,-431.03 1360,-428 1313.9,-416.66 966.25,-429.84 934,-395 927.96,-388.48 928.98,-382.34 934,-375 956.89,-341.56 983.41,-361.38 1019,-342 1023.18,-339.72 1027.39,-337.27 1031.59,-334.71"/>
<polygon fill="#c0392b" stroke="#c0392b" points="1033.57,-337.6 1040.17,-329.3 1029.84,-331.68 1033.57,-337.6"/>
<text text-anchor="middle" x="984" y="-382.8" font-family="Helvetica,sans-Serif" font-size="9.00">schedule_ev_charge()</text>
</g>
<!-- coordinator&#45;&gt;const -->
<g id="edge31" class="edge">
<title>coordinator&#45;&gt;const</title>
<path fill="none" stroke="#cccccc" stroke-dasharray="1,5" d="M1550.52,-427.94C1573.87,-402.91 1600,-372.36 1620,-342 1672.82,-261.81 1715.86,-156.77 1736.6,-101.95"/>
<polygon fill="#cccccc" stroke="#cccccc" points="1739.98,-102.9 1740.21,-92.31 1733.42,-100.45 1739.98,-102.9"/>
</g>
<!-- dashboard&#45;&gt;models -->
<g id="edge20" class="edge">
<title>dashboard&#45;&gt;models</title>
<path fill="none" stroke="#888888" d="M1468.88,-250C1449.3,-238.09 1425.43,-224.45 1403,-214 1299.33,-165.7 1175.33,-123.22 1089.63,-96.11"/>
<polygon fill="#888888" stroke="#888888" points="1090.49,-92.71 1079.9,-93.04 1088.39,-99.38 1090.49,-92.71"/>
<text text-anchor="middle" x="1352.5" y="-168.8" font-family="Helvetica,sans-Serif" font-size="9.00">data structs</text>
</g>
<!-- dashboard&#45;&gt;tariff -->
<g id="edge19" class="edge">
<title>dashboard&#45;&gt;tariff</title>
<path fill="none" stroke="#888888" stroke-dasharray="5,2" d="M1470.79,-306.01C1451.11,-318.6 1426.62,-332.69 1403,-342 1343.1,-365.6 1325.51,-366.07 1261.5,-373 1153.48,-384.69 1120.76,-380.1 1019,-342 1005.89,-337.09 992.6,-330.5 980.09,-323.4"/>
<polygon fill="#888888" stroke="#888888" points="981.54,-320.19 971.14,-318.17 978,-326.23 981.54,-320.19"/>
<text text-anchor="middle" x="1231" y="-382.8" font-family="Helvetica,sans-Serif" font-size="9.00">buy/sell price</text>
</g>
<!-- dashboard&#45;&gt;const -->
<g id="edge32" class="edge">
<title>dashboard&#45;&gt;const</title>
<path fill="none" stroke="#cccccc" stroke-dasharray="1,5" d="M1537.98,-249.56C1561.88,-225.59 1597.99,-190.16 1631,-161 1655.47,-139.38 1683.89,-116.38 1706.83,-98.31"/>
<polygon fill="#cccccc" stroke="#cccccc" points="1708.99,-101.06 1714.69,-92.13 1704.67,-95.55 1708.99,-101.06"/>
</g>
<!-- inverter&#45;&gt;inverter_hw -->
<g id="edge21" class="edge">
<title>inverter&#45;&gt;inverter_hw</title>
<path fill="none" stroke="#e67e22" stroke-dasharray="5,2" d="M1889.49,-336.12C1887.21,-348.85 1885.18,-362.34 1884,-375 1874.5,-477.21 1877.33,-508.13 1914,-604 1920.64,-621.37 1931.72,-638.78 1941.94,-652.73"/>
<polygon fill="#e67e22" stroke="#e67e22" points="1939.33,-655.07 1948.15,-660.93 1944.91,-650.85 1939.33,-655.07"/>
<text text-anchor="middle" x="1949" y="-483.8" font-family="Helvetica,sans-Serif" font-size="9.00">HA service calls</text>
</g>
<!-- inverter&#45;&gt;const -->
<g id="edge29" class="edge">
<title>inverter&#45;&gt;const</title>
<path fill="none" stroke="#cccccc" stroke-dasharray="1,5" d="M1861.07,-219.91C1833.78,-181.86 1798.78,-133.04 1775.43,-100.47"/>
<polygon fill="#cccccc" stroke="#cccccc" points="1778.14,-98.24 1769.47,-92.15 1772.45,-102.32 1778.14,-98.24"/>
</g>
<!-- ev_charger&#45;&gt;ev_hw -->
<g id="edge22" class="edge">
<title>ev_charger&#45;&gt;ev_hw</title>
<path fill="none" stroke="#e67e22" stroke-dasharray="5,2" d="M2189.75,-324.11C2214.26,-351.56 2242.01,-388.81 2255,-428 2280.47,-504.82 2268.39,-602.05 2259.51,-650.93"/>
<polygon fill="#e67e22" stroke="#e67e22" points="2256.05,-650.41 2257.63,-660.88 2262.93,-651.71 2256.05,-650.41"/>
<text text-anchor="middle" x="2305" y="-483.8" font-family="Helvetica,sans-Serif" font-size="9.00">HA service calls</text>
</g>
<!-- ev_charger&#45;&gt;const -->
<g id="edge30" class="edge">
<title>ev_charger&#45;&gt;const</title>
<path fill="none" stroke="#cccccc" stroke-dasharray="1,5" d="M2063.79,-233.84C1988.32,-193.23 1877.05,-133.36 1809.29,-96.9"/>
<polygon fill="#cccccc" stroke="#cccccc" points="1810.89,-93.79 1800.43,-92.13 1807.58,-99.95 1810.89,-93.79"/>
</g>
<!-- tariff&#45;&gt;models -->
<g id="edge15" class="edge">
<title>tariff&#45;&gt;models</title>
<path fill="none" stroke="#888888" d="M927.37,-237.62C936.85,-209.72 949.84,-171.47 961.19,-138.06"/>
<polygon fill="#888888" stroke="#888888" points="964.59,-138.91 964.5,-128.32 957.97,-136.66 964.59,-138.91"/>
<text text-anchor="middle" x="976.5" y="-168.8" font-family="Helvetica,sans-Serif" font-size="9.00">TariffResult</text>
</g>
<!-- battery&#45;&gt;models -->
<g id="edge16" class="edge">
<title>battery&#45;&gt;models</title>
<path fill="none" stroke="#888888" d="M1214.8,-220.47C1175.62,-193.84 1128.54,-161.85 1087.3,-133.83"/>
<polygon fill="#888888" stroke="#888888" points="1089.1,-130.83 1078.86,-128.1 1085.17,-136.62 1089.1,-130.83"/>
<text text-anchor="middle" x="1198" y="-173.8" font-family="Helvetica,sans-Serif" font-size="9.00">CapacityObservation</text>
<text text-anchor="middle" x="1198" y="-163.8" font-family="Helvetica,sans-Serif" font-size="9.00">BatteryState</text>
</g>
<!-- optimizer&#45;&gt;models -->
<g id="edge17" class="edge">
<title>optimizer&#45;&gt;models</title>
<path fill="none" stroke="#888888" d="M684.21,-228.63C743.5,-196.48 821.54,-154.17 883.4,-120.63"/>
<polygon fill="#888888" stroke="#888888" points="885.28,-123.59 892.4,-115.75 881.94,-117.44 885.28,-123.59"/>
<text text-anchor="middle" x="832" y="-173.8" font-family="Helvetica,sans-Serif" font-size="9.00">Schedule</text>
<text text-anchor="middle" x="832" y="-163.8" font-family="Helvetica,sans-Serif" font-size="9.00">ScheduleSlot</text>
</g>
<!-- optimizer&#45;&gt;tariff -->
<g id="edge13" class="edge">
<title>optimizer&#45;&gt;tariff</title>
<path fill="none" stroke="#c0392b" stroke-dasharray="5,2" d="M684.28,-278C726.69,-278 777.36,-278 820.32,-278"/>
<polygon fill="#c0392b" stroke="#c0392b" points="820.49,-281.5 830.49,-278 820.49,-274.5 820.49,-281.5"/>
<text text-anchor="middle" x="757.25" y="-283.8" font-family="Helvetica,sans-Serif" font-size="9.00">trade_profit_per_kwh()</text>
</g>
<!-- optimizer&#45;&gt;battery -->
<g id="edge14" class="edge">
<title>optimizer&#45;&gt;battery</title>
<path fill="none" stroke="#c0392b" stroke-dasharray="5,2" d="M684.24,-308.15C722.33,-320.11 767.48,-333.11 809,-342 888.27,-358.98 1095.65,-398.81 1172.5,-373 1189.55,-367.27 1206.13,-358.21 1221.35,-347.91"/>
<polygon fill="#c0392b" stroke="#c0392b" points="1223.49,-350.69 1229.66,-342.08 1219.46,-344.96 1223.49,-350.69"/>
<text text-anchor="middle" x="1108" y="-382.8" font-family="Helvetica,sans-Serif" font-size="9.00">degradation_cost_per_kwh()</text>
</g>
<!-- ev_sched&#45;&gt;models -->
<g id="edge18" class="edge">
<title>ev_sched&#45;&gt;models</title>
<path fill="none" stroke="#888888" d="M1077.1,-225.95C1062.02,-199.3 1043.31,-166.25 1026.78,-137.04"/>
<polygon fill="#888888" stroke="#888888" points="1029.7,-135.09 1021.72,-128.11 1023.6,-138.54 1029.7,-135.09"/>
<text text-anchor="middle" x="1080" y="-173.8" font-family="Helvetica,sans-Serif" font-size="9.00">EVSchedule</text>
<text text-anchor="middle" x="1080" y="-163.8" font-family="Helvetica,sans-Serif" font-size="9.00">EVChargeSlot</text>
</g>
</g>
</svg>
