<?xml version="1.0" encoding="UTF-8" standalone="no"?><svg xmlns="http://www.w3.org/2000/svg" xmlns:xlink="http://www.w3.org/1999/xlink" contentScriptType="application/ecmascript" contentStyleType="text/css" height="964px" preserveAspectRatio="none" style="width:1790px;height:964px;" version="1.1" viewBox="0 0 1790 964" width="1790px" zoomAndPan="magnify"><defs/><g><text fill="#000000" font-family="sans-serif" font-size="11" lengthAdjust="spacingAndGlyphs" textLength="228" x="784" y="11.7589">sunSale — Module map with refactor status</text><rect fill="#DDDDDD" height="88.9094" rx="5" ry="5" style="stroke: #000000; stroke-width: 1.0;" width="383" x="8" y="22.9819"/><text fill="#000000" font-family="sans-serif" font-size="11" font-weight="bold" lengthAdjust="spacingAndGlyphs" textLength="36" x="17" y="41.7408">Colour</text><text fill="#000000" font-family="sans-serif" font-size="11" font-weight="bold" lengthAdjust="spacingAndGlyphs" textLength="35" x="59" y="41.7408">Status</text><text fill="#000000" font-family="sans-serif" font-size="11" font-weight="bold" lengthAdjust="spacingAndGlyphs" textLength="48" x="120" y="41.7408">Meaning</text><rect fill="#C8E6C9" height="14.9819" style="stroke: none; stroke-width: 1.0;" width="42" x="14" y="44.9638"/><text fill="#000000" font-family="sans-serif" font-size="11" lengthAdjust="spacingAndGlyphs" textLength="0" x="17" y="56.7227"/><text fill="#000000" font-family="sans-serif" font-size="11" lengthAdjust="spacingAndGlyphs" textLength="55" x="59" y="56.7227">refactored</text><text fill="#000000" font-family="sans-serif" font-size="11" lengthAdjust="spacingAndGlyphs" textLength="192" x="120" y="56.7227">dedicated reference doc under docs/</text><rect fill="#FFCDD2" height="14.9819" style="stroke: none; stroke-width: 1.0;" width="42" x="14" y="59.9457"/><text fill="#000000" font-family="sans-serif" font-size="11" lengthAdjust="spacingAndGlyphs" textLength="0" x="17" y="71.7046"/><text fill="#000000" font-family="sans-serif" font-size="11" lengthAdjust="spacingAndGlyphs" textLength="40" x="59" y="71.7046">missing</text><text fill="#000000" font-family="sans-serif" font-size="11" lengthAdjust="spacingAndGlyphs" textLength="262" x="120" y="71.7046">partial integration; *_missing.md exists or needed</text><rect fill="#ECEFF1" height="14.9819" style="stroke: none; stroke-width: 1.0;" width="42" x="14" y="74.9276"/><text fill="#000000" font-family="sans-serif" font-size="11" lengthAdjust="spacingAndGlyphs" textLength="0" x="17" y="86.6865"/><text fill="#000000" font-family="sans-serif" font-size="11" lengthAdjust="spacingAndGlyphs" textLength="17" x="59" y="86.6865">old</text><text fill="#000000" font-family="sans-serif" font-size="11" lengthAdjust="spacingAndGlyphs" textLength="250" x="120" y="86.6865">pre-refactor, no doc, behaviour read from code</text><rect fill="#BBDEFB" height="14.9819" style="stroke: none; stroke-width: 1.0;" width="42" x="14" y="89.9094"/><text fill="#000000" font-family="sans-serif" font-size="11" lengthAdjust="spacingAndGlyphs" textLength="0" x="17" y="101.6684"/><text fill="#000000" font-family="sans-serif" font-size="11" lengthAdjust="spacingAndGlyphs" textLength="43" x="59" y="101.6684">external</text><text fill="#000000" font-family="sans-serif" font-size="11" lengthAdjust="spacingAndGlyphs" textLength="125" x="120" y="101.6684">Home Assistant runtime</text><line style="stroke: #000000; stroke-width: 1.0;" x1="14" x2="385" y1="29.9819" y2="29.9819"/><line style="stroke: #000000; stroke-width: 1.0;" x1="14" x2="385" y1="44.9638" y2="44.9638"/><line style="stroke: #000000; stroke-width: 1.0;" x1="14" x2="385" y1="59.9457" y2="59.9457"/><line style="stroke: #000000; stroke-width: 1.0;" x1="14" x2="385" y1="74.9276" y2="74.9276"/><line style="stroke: #000000; stroke-width: 1.0;" x1="14" x2="385" y1="89.9094" y2="89.9094"/><line style="stroke: #000000; stroke-width: 1.0;" x1="14" x2="385" y1="104.8913" y2="104.8913"/><line style="stroke: #000000; stroke-width: 1.0;" x1="14" x2="14" y1="29.9819" y2="104.8913"/><line style="stroke: #000000; stroke-width: 1.0;" x1="56" x2="56" y1="29.9819" y2="104.8913"/><line style="stroke: #000000; stroke-width: 1.0;" x1="117" x2="117" y1="29.9819" y2="104.8913"/><line style="stroke: #000000; stroke-width: 1.0;" x1="385" x2="385" y1="29.9819" y2="104.8913"/><!--MD5=[6dfb81d9c71183f52cc7000eb28cdf20]
cluster contract/  (pure data — no internal deps)--><polygon fill="#FFFFFF" points="503.79,263.8913,751.79,263.8913,758.79,286.2354,763.79,286.2354,763.79,349.8913,503.79,349.8913,503.79,263.8913" style="stroke: #444444; stroke-width: 1.5;"/><line style="stroke: #444444; stroke-width: 1.5;" x1="503.79" x2="758.79" y1="286.2354" y2="286.2354"/><text fill="#000000" font-family="sans-serif" font-size="12" font-weight="bold" lengthAdjust="spacingAndGlyphs" textLength="242" x="507.79" y="278.7194">contract/  (pure data — no internal deps)</text><!--MD5=[209ed44469a28fb186db099e7e41a311]
cluster inbound/  (HA-read + normalise)--><polygon fill="#FFFFFF" points="1174.79,483.8913,1371.79,483.8913,1378.79,506.2354,1589.79,506.2354,1589.79,717.3913,1174.79,717.3913,1174.79,483.8913" style="stroke: #444444; stroke-width: 1.5;"/><line style="stroke: #444444; stroke-width: 1.5;" x1="1174.79" x2="1378.79" y1="506.2354" y2="506.2354"/><text fill="#000000" font-family="sans-serif" font-size="12" font-weight="bold" lengthAdjust="spacingAndGlyphs" textLength="191" x="1178.79" y="498.7194">inbound/  (HA-read + normalise)</text><!--MD5=[f26ad0405b950fdb0e59151affed5e7e]
cluster pipeline/  (pure-Python DAG)--><polygon fill="#FFFFFF" points="432.79,483.8913,611.79,483.8913,618.79,506.2354,1150.79,506.2354,1150.79,858.8913,432.79,858.8913,432.79,483.8913" style="stroke: #444444; stroke-width: 1.5;"/><line style="stroke: #444444; stroke-width: 1.5;" x1="432.79" x2="618.79" y1="506.2354" y2="506.2354"/><text fill="#000000" font-family="sans-serif" font-size="12" font-weight="bold" lengthAdjust="spacingAndGlyphs" textLength="173" x="436.79" y="498.7194">pipeline/  (pure-Python DAG)</text><!--MD5=[a4d28af375b565af9dc2bbe1bd73b9b2]
cluster outbound/  (HA-write + presentation)--><polygon fill="#FFFFFF" points="28.79,765.3913,254.79,765.3913,261.79,787.7354,267.79,787.7354,267.79,952.8913,28.79,952.8913,28.79,765.3913" style="stroke: #444444; stroke-width: 1.5;"/><line style="stroke: #444444; stroke-width: 1.5;" x1="28.79" x2="261.79" y1="787.7354" y2="787.7354"/><text fill="#000000" font-family="sans-serif" font-size="12" font-weight="bold" lengthAdjust="spacingAndGlyphs" textLength="220" x="32.79" y="780.2194">outbound/  (HA-write + presentation)</text><!--MD5=[8bb44286e6115f57ca12b99d85b97c42]
cluster orchestration/  (glue)--><polygon fill="#FFFFFF" points="218.79,263.8913,350.79,263.8913,357.79,286.2354,413.79,286.2354,413.79,450.8913,218.79,450.8913,218.79,263.8913" style="stroke: #444444; stroke-width: 1.5;"/><line style="stroke: #444444; stroke-width: 1.5;" x1="218.79" x2="357.79" y1="286.2354" y2="286.2354"/><text fill="#000000" font-family="sans-serif" font-size="12" font-weight="bold" lengthAdjust="spacingAndGlyphs" textLength="126" x="222.79" y="278.7194">orchestration/  (glue)</text><!--MD5=[1e19a5f86b747fe24fa32eeabf26b105]
cluster HA root entry points--><polygon fill="#FFFFFF" points="342.79,144.8913,468.79,144.8913,475.79,167.2354,715.79,167.2354,715.79,230.8913,342.79,230.8913,342.79,144.8913" style="stroke: #444444; stroke-width: 1.5;"/><line style="stroke: #444444; stroke-width: 1.5;" x1="342.79" x2="475.79" y1="167.2354" y2="167.2354"/><text fill="#000000" font-family="sans-serif" font-size="12" font-weight="bold" lengthAdjust="spacingAndGlyphs" textLength="120" x="346.79" y="159.7194">HA root entry points</text><!--MD5=[d12dde9f376e83ecdecb80f63271259b]
entity C_const--><rect fill="#ECEFF1" height="34.9819" style="stroke: #333333; stroke-width: 1.5;" width="64" x="519.79" y="298.8913"/><text fill="#000000" font-family="sans-serif" font-size="11" lengthAdjust="spacingAndGlyphs" textLength="44" x="529.79" y="320.6502">const.py</text><!--MD5=[5e82214aac5add28f7029fb776387e80]
entity C_events--><rect fill="#ECEFF1" height="34.9819" style="stroke: #333333; stroke-width: 1.5;" width="70" x="593.79" y="298.8913"/><text fill="#000000" font-family="sans-serif" font-size="11" lengthAdjust="spacingAndGlyphs" textLength="50" x="603.79" y="320.6502">events.py</text><!--MD5=[67c9c726f3a49f48595f8a2b9800779f]
entity C_models--><rect fill="#ECEFF1" height="34.9819" style="stroke: #333333; stroke-width: 1.5;" width="74" x="673.79" y="298.8913"/><text fill="#000000" font-family="sans-serif" font-size="11" lengthAdjust="spacingAndGlyphs" textLength="54" x="683.79" y="320.6502">models.py</text><!--MD5=[27e710538a47ce4f5ec55df6284c66c7]
entity I_trans--><rect fill="#ECEFF1" height="34.9819" style="stroke: #333333; stroke-width: 1.5;" width="93" x="1481.29" y="526.3913"/><text fill="#000000" font-family="sans-serif" font-size="11" lengthAdjust="spacingAndGlyphs" textLength="73" x="1491.29" y="548.1502">translators.py</text><!--MD5=[a61a3cb4976593378efa321f88b5f260]
entity I_price--><rect fill="#C8E6C9" height="49.9638" style="stroke: #333333; stroke-width: 1.5;" width="83" x="1309.29" y="651.3913"/><text fill="#000000" font-family="sans-serif" font-size="11" lengthAdjust="spacingAndGlyphs" textLength="53" x="1319.29" y="673.1502">pricing.py</text><text fill="#000000" font-family="sans-serif" font-size="11" lengthAdjust="spacingAndGlyphs" textLength="63" x="1319.29" y="688.1321">[refactored]</text><!--MD5=[e78a3645dee9cd00436ed6145ebab111]
entity I_fc--><rect fill="#C8E6C9" height="49.9638" style="stroke: #333333; stroke-width: 1.5;" width="83" x="1388.29" y="518.8913"/><text fill="#000000" font-family="sans-serif" font-size="11" lengthAdjust="spacingAndGlyphs" textLength="58" x="1398.29" y="540.6502">forecast.py</text><text fill="#000000" font-family="sans-serif" font-size="11" lengthAdjust="spacingAndGlyphs" textLength="63" x="1398.29" y="555.6321">[refactored]</text><!--MD5=[bc163b9325490ded7729dc6bef994cb6]
entity I_gen--><rect fill="#C8E6C9" height="49.9638" style="stroke: #333333; stroke-width: 1.5;" width="94" x="1190.79" y="518.8913"/><text fill="#000000" font-family="sans-serif" font-size="11" lengthAdjust="spacingAndGlyphs" textLength="74" x="1200.79" y="540.6502">generation.py</text><text fill="#000000" font-family="sans-serif" font-size="11" lengthAdjust="spacingAndGlyphs" textLength="63" x="1200.79" y="555.6321">[refactored]</text><!--MD5=[c8626f5fe81c3f87e44cad23800baa60]
entity I_bat--><rect fill="#C8E6C9" height="49.9638" style="stroke: #333333; stroke-width: 1.5;" width="83" x="1295.29" y="518.8913"/><text fill="#000000" font-family="sans-serif" font-size="11" lengthAdjust="spacingAndGlyphs" textLength="54" x="1305.29" y="540.6502">battery.py</text><text fill="#000000" font-family="sans-serif" font-size="11" lengthAdjust="spacingAndGlyphs" textLength="63" x="1305.29" y="555.6321">[refactored]</text><!--MD5=[6c9e1c13e7aa31a8ee5f8f89fd2468e3]
entity P_engine--><rect fill="#ECEFF1" height="34.9819" style="stroke: #333333; stroke-width: 1.5;" width="97" x="595.29" y="526.3913"/><text fill="#000000" font-family="sans-serif" font-size="11" lengthAdjust="spacingAndGlyphs" textLength="77" x="605.29" y="548.1502">dag_engine.py</text><!--MD5=[c66469118725159774adb448eb25a315]
entity P_nodes--><rect fill="#ECEFF1" height="34.9819" style="stroke: #333333; stroke-width: 1.5;" width="68" x="696.79" y="658.8913"/><text fill="#000000" font-family="sans-serif" font-size="11" lengthAdjust="spacingAndGlyphs" textLength="48" x="706.79" y="680.6502">nodes.py</text><!--MD5=[c33337a4837c57b12f7c8a02e9a4e19c]
entity P_tariff--><rect fill="#ECEFF1" height="34.9819" style="stroke: #333333; stroke-width: 1.5;" width="62" x="1072.79" y="800.3913"/><text fill="#000000" font-family="sans-serif" font-size="11" lengthAdjust="spacingAndGlyphs" textLength="42" x="1082.79" y="822.1502">tariff.py</text><!--MD5=[a17fc9fcf7536eb7ae5c3cd4a7de19a4]
entity P_bat--><rect fill="#ECEFF1" height="34.9819" style="stroke: #333333; stroke-width: 1.5;" width="74" x="448.79" y="800.3913"/><text fill="#000000" font-family="sans-serif" font-size="11" lengthAdjust="spacingAndGlyphs" textLength="54" x="458.79" y="822.1502">battery.py</text><!--MD5=[eed69c6e39bf1dde401328bff2fb990b]
entity P_calc--><rect fill="#ECEFF1" height="34.9819" style="stroke: #333333; stroke-width: 1.5;" width="87" x="533.29" y="800.3913"/><text fill="#000000" font-family="sans-serif" font-size="11" lengthAdjust="spacingAndGlyphs" textLength="67" x="543.29" y="822.1502">calculator.py</text><!--MD5=[b7933d0d11ecb6fdcd56b4c7043279f2]
entity P_opt--><rect fill="#ECEFF1" height="34.9819" style="stroke: #333333; stroke-width: 1.5;" width="86" x="630.79" y="800.3913"/><text fill="#000000" font-family="sans-serif" font-size="11" lengthAdjust="spacingAndGlyphs" textLength="66" x="640.79" y="822.1502">optimizer.py</text><!--MD5=[92731c6e57f50bdaa7fca94765df2fd3]
entity P_ev--><rect fill="#ECEFF1" height="34.9819" style="stroke: #333333; stroke-width: 1.5;" width="104" x="726.79" y="800.3913"/><text fill="#000000" font-family="sans-serif" font-size="11" lengthAdjust="spacingAndGlyphs" textLength="84" x="736.79" y="822.1502">ev_scheduler.py</text><!--MD5=[3d5cf3f18b27d0f622301465a4c2668d]
entity P_cp--><rect fill="#C8E6C9" height="49.9638" style="stroke: #333333; stroke-width: 1.5;" width="123" x="841.29" y="792.8913"/><text fill="#000000" font-family="sans-serif" font-size="11" lengthAdjust="spacingAndGlyphs" textLength="103" x="851.29" y="814.6502">charging_profile.py</text><text fill="#000000" font-family="sans-serif" font-size="11" lengthAdjust="spacingAndGlyphs" textLength="63" x="851.29" y="829.6321">[refactored]</text><!--MD5=[1f26cbe748e2770eebe77dc93796c5bc]
entity P_bl--><rect fill="#C8E6C9" height="49.9638" style="stroke: #333333; stroke-width: 1.5;" width="88" x="974.79" y="792.8913"/><text fill="#000000" font-family="sans-serif" font-size="11" lengthAdjust="spacingAndGlyphs" textLength="68" x="984.79" y="814.6502">base_load.py</text><text fill="#000000" font-family="sans-serif" font-size="11" lengthAdjust="spacingAndGlyphs" textLength="63" x="984.79" y="829.6321">[refactored]</text><!--MD5=[77266d2da2ac4bc34c1599774f9de85b]
entity P_prof--><rect fill="#FFCDD2" height="49.9638" style="stroke: #333333; stroke-width: 1.5;" width="136" x="448.79" y="518.8913"/><text fill="#000000" font-family="sans-serif" font-size="11" lengthAdjust="spacingAndGlyphs" textLength="78" x="458.79" y="540.6502">profitability.py</text><text fill="#000000" font-family="sans-serif" font-size="11" lengthAdjust="spacingAndGlyphs" textLength="116" x="458.79" y="555.6321">[missing — not wired]</text><!--MD5=[ca83985bd2fbba7da84016f5000a0ef6]
entity O_router--><rect fill="#ECEFF1" height="34.9819" style="stroke: #333333; stroke-width: 1.5;" width="104" x="44.79" y="800.3913"/><text fill="#000000" font-family="sans-serif" font-size="11" lengthAdjust="spacingAndGlyphs" textLength="84" x="54.79" y="822.1502">event_router.py</text><!--MD5=[759712d3b7549ca4b64be7b8f00e7b00]
entity O_inv--><rect fill="#ECEFF1" height="34.9819" style="stroke: #333333; stroke-width: 1.5;" width="78" x="48.79" y="901.8913"/><text fill="#000000" font-family="sans-serif" font-size="11" lengthAdjust="spacingAndGlyphs" textLength="58" x="58.79" y="923.6502">inverter.py</text><!--MD5=[f23a73f3b25d89c9b61a195f3bcdf5b0]
entity O_ev--><rect fill="#ECEFF1" height="34.9819" style="stroke: #333333; stroke-width: 1.5;" width="94" x="136.79" y="901.8913"/><text fill="#000000" font-family="sans-serif" font-size="11" lengthAdjust="spacingAndGlyphs" textLength="74" x="146.79" y="923.6502">ev_charger.py</text><!--MD5=[02da6970f2fbee785559da308171999d]
entity O_dash--><rect fill="#ECEFF1" height="34.9819" style="stroke: #333333; stroke-width: 1.5;" width="93" x="159.29" y="800.3913"/><text fill="#000000" font-family="sans-serif" font-size="11" lengthAdjust="spacingAndGlyphs" textLength="73" x="169.29" y="822.1502">dashboard.py</text><!--MD5=[abfe36fce877bb8fd52b28985d2531d3]
entity ORCH_coord--><rect fill="#ECEFF1" height="34.9819" style="stroke: #333333; stroke-width: 1.5;" width="99" x="298.29" y="399.8913"/><text fill="#000000" font-family="sans-serif" font-size="11" lengthAdjust="spacingAndGlyphs" textLength="79" x="308.29" y="421.6502">coordinator.py</text><!--MD5=[44748a290badea9d78db9e513e18d5d1]
entity ORCH_dbg--><rect fill="#ECEFF1" height="34.9819" style="stroke: #333333; stroke-width: 1.5;" width="99" x="262.29" y="298.8913"/><text fill="#000000" font-family="sans-serif" font-size="11" lengthAdjust="spacingAndGlyphs" textLength="79" x="272.29" y="320.6502">debug_view.py</text><!--MD5=[8640175f0dc1d2e6b4e51d0f80906987]
entity R_init--><rect fill="#ECEFF1" height="34.9819" style="stroke: #333333; stroke-width: 1.5;" width="73" x="359.29" y="179.8913"/><text fill="#000000" font-family="sans-serif" font-size="11" lengthAdjust="spacingAndGlyphs" textLength="53" x="369.29" y="201.6502">__init__.py</text><!--MD5=[f9a4d3bd3a6856799782d39c89ef5b2d]
entity R_cfg--><rect fill="#ECEFF1" height="34.9819" style="stroke: #333333; stroke-width: 1.5;" width="97" x="521.29" y="179.8913"/><text fill="#000000" font-family="sans-serif" font-size="11" lengthAdjust="spacingAndGlyphs" textLength="77" x="531.29" y="201.6502">config_flow.py</text><!--MD5=[029eaa835e666334db3d5104f58123e9]
entity R_sens--><rect fill="#ECEFF1" height="34.9819" style="stroke: #333333; stroke-width: 1.5;" width="71" x="628.29" y="179.8913"/><text fill="#000000" font-family="sans-serif" font-size="11" lengthAdjust="spacingAndGlyphs" textLength="51" x="638.29" y="201.6502">sensor.py</text><!--MD5=[fb26a7a1d1468a81e442adb4ba4b88f8]
entity R_sw--><rect fill="#ECEFF1" height="34.9819" style="stroke: #333333; stroke-width: 1.5;" width="69" x="442.29" y="179.8913"/><text fill="#000000" font-family="sans-serif" font-size="11" lengthAdjust="spacingAndGlyphs" textLength="49" x="452.29" y="201.6502">switch.py</text><!--MD5=[c9c462bca33439578669187073b1e66a]
entity HA--><rect fill="#BBDEFB" height="49.9638" style="stroke: #333333; stroke-width: 1.5;" width="133" x="780.29" y="291.3913"/><text fill="#000000" font-family="sans-serif" font-size="11" lengthAdjust="spacingAndGlyphs" textLength="80" x="790.29" y="313.1502">Home Assistant</text><text fill="#000000" font-family="sans-serif" font-size="11" lengthAdjust="spacingAndGlyphs" textLength="113" x="790.29" y="328.1321">(hass.states / services)</text><path d="M110.79,650.8913 L110.79,701.7513 A0,0 0 0 0 110.79,701.7513 L416.79,701.7513 A0,0 0 0 0 416.79,701.7513 L416.79,660.8913 L406.79,650.8913 L315.51,650.8913 L470.1,568.9813 L307.51,650.8913 L110.79,650.8913 A0,0 0 0 0 110.79,650.8913 " fill="#FFFDE7" style="stroke: #888888; stroke-width: 1.0;"/><path d="M406.79,650.8913 L406.79,660.8913 L416.79,660.8913 L406.79,650.8913 " fill="#FFFDE7" style="stroke: #888888; stroke-width: 1.0;"/><text fill="#000000" font-family="sans-serif" font-size="10" lengthAdjust="spacingAndGlyphs" textLength="285" x="116.79" y="666.5813">Implemented as pure helpers; types in contract/models.py;</text><text fill="#000000" font-family="sans-serif" font-size="10" lengthAdjust="spacingAndGlyphs" textLength="210" x="116.79" y="680.2013">exercised only by tests/test_profitability.py.</text><text fill="#000000" font-family="sans-serif" font-size="10" lengthAdjust="spacingAndGlyphs" textLength="239" x="116.79" y="693.8213">See docs/MODULES.md §9 for the integration tail.</text><path d="M1523.29,893.8913 L1523.29,944.7513 L1778.29,944.7513 L1778.29,903.8913 L1768.29,893.8913 L1523.29,893.8913 " fill="#FFFDE7" style="stroke: #888888; stroke-width: 1.0;"/><path d="M1768.29,893.8913 L1768.29,903.8913 L1778.29,903.8913 L1768.29,893.8913 " fill="#FFFDE7" style="stroke: #888888; stroke-width: 1.0;"/><text fill="#000000" font-family="sans-serif" font-size="10" lengthAdjust="spacingAndGlyphs" textLength="196" x="1529.29" y="909.5813">base_load_missing.md items are merged</text><text fill="#000000" font-family="sans-serif" font-size="10" lengthAdjust="spacingAndGlyphs" textLength="197" x="1529.29" y="923.2013">(translator, persistence, nodes, sensors).</text><text fill="#000000" font-family="sans-serif" font-size="10" lengthAdjust="spacingAndGlyphs" textLength="234" x="1529.29" y="936.8213">Doc retained for 0.2 kW stub + local-tz rationale.</text><!--MD5=[929985237ab12275f8036741ae2b49a6]
link HA to I_trans--><path d="M913.35,318.3213 C1036.23,323.2113 1302.09,348.9013 1476.79,475.8913 C1493.51,488.0413 1507.32,507.2113 1516.33,521.9313 " fill="none" id="HA-&gt;I_trans" style="stroke: #555555; stroke-width: 1.0;"/><polygon fill="#555555" points="1518.97,526.3413,1517.8078,516.5613,1516.4143,522.0438,1510.9318,520.6503,1518.97,526.3413" style="stroke: #555555; stroke-width: 1.0;"/><!--MD5=[9a451ffa2d479b777048c9be3aad9220]
link HA to O_inv--><path d="M913.35,319.0613 C1099.46,324.6113 1611.79,346.2513 1611.79,416.3913 C1611.79,416.3913 1611.79,416.3913 1611.79,818.8913 C1611.79,923.2113 1248.9,860.1613 1144.79,866.8913 C1032.43,874.1513 240.39,864.1413 131.79,893.8913 C126.99,895.2113 122.14,897.1513 117.51,899.3813 " fill="none" id="HA-&gt;O_inv" style="stroke: #555555; stroke-width: 1.0;"/><polygon fill="#555555" points="112.96,901.6913,122.795,901.1687,117.4149,899.4211,119.1626,894.0409,112.96,901.6913" style="stroke: #555555; stroke-width: 1.0;"/><!--MD5=[24c783b14a5571c381f85209e629ca4d]
link HA to O_ev--><path d="M913.36,317.2213 C1090.85,317.3713 1565.59,321.9213 1619.79,365.8913 C1637.88,380.5613 1633.79,393.1013 1633.79,416.3913 C1633.79,416.3913 1633.79,416.3913 1633.79,818.8913 C1633.79,844.9813 1640.08,859.4913 1619.79,875.8913 C1592.36,898.0713 491.13,914.2513 236.13,917.7013 " fill="none" id="HA-&gt;O_ev" style="stroke: #555555; stroke-width: 1.0;"/><polygon fill="#555555" points="230.98,917.7713,240.0362,921.6424,235.9795,917.6999,239.9219,913.6432,230.98,917.7713" style="stroke: #555555; stroke-width: 1.0;"/><!--MD5=[3dcea8a5d25271153d2d9cb99c888761]
link R_init to HA--><path d="M408.29,215.0513 C415.81,223.7513 426.16,233.6413 437.79,238.8913 C502.7,268.1913 690.06,233.9113 757.79,255.8913 C778.66,262.6613 799.19,275.8313 815.28,288.0613 " fill="none" id="R_init-&gt;HA" style="stroke: #555555; stroke-width: 1.0;"/><polygon fill="#555555" points="819.27,291.1513,814.5933,282.4836,815.3133,288.0945,809.7024,288.8144,819.27,291.1513" style="stroke: #555555; stroke-width: 1.0;"/><!--MD5=[07a90a184cff4a1249ec4637a7b0bd89]
link R_cfg to HA--><path d="M587.32,215.2413 C597.24,223.7613 610.33,233.4313 623.79,238.8913 C679.44,261.4313 701.56,234.8713 757.79,255.8913 C777.85,263.3913 797.87,276.1813 813.83,287.9913 " fill="none" id="R_cfg-&gt;HA" style="stroke: #555555; stroke-width: 1.0;"/><polygon fill="#555555" points="818.22,291.2913,813.4396,282.6804,814.2269,288.2822,808.625,289.0694,818.22,291.2913" style="stroke: #555555; stroke-width: 1.0;"/><!--MD5=[7f85b408d966f688d29c6d6f8f02b75d]
link R_sens to HA--><path d="M691.53,214.9613 C710.35,226.2913 735.72,241.7713 757.79,255.8913 C774.11,266.3313 791.89,278.1313 807.24,288.4513 " fill="none" id="R_sens-&gt;HA" style="stroke: #555555; stroke-width: 1.0;"/><polygon fill="#555555" points="811.5,291.3213,806.2699,282.9759,807.353,288.5281,801.8007,289.6112,811.5,291.3213" style="stroke: #555555; stroke-width: 1.0;"/><!--MD5=[593f8d5161a3e0dd3d90dfb3d986726e]
link R_sw to HA--><path d="M488.51,215.0913 C495.61,223.8013 505.48,233.6913 516.79,238.8913 C565.57,261.3213 707,238.5013 757.79,255.8913 C778.38,262.9413 798.75,275.9813 814.8,288.0713 " fill="none" id="R_sw-&gt;HA" style="stroke: #555555; stroke-width: 1.0;"/><polygon fill="#555555" points="818.78,291.1213,814.0687,282.4724,814.811,288.0804,809.2031,288.8228,818.78,291.1213" style="stroke: #555555; stroke-width: 1.0;"/><!--MD5=[079cde0b14bae9f721a8d7ae2984eda0]
reverse link C_models to I_trans--><path d="M737.23,337.0513 C748.58,344.6313 762.32,352.7013 775.79,357.8913 C1012.63,449.0713 1086.86,421.0313 1337.79,458.8913 C1399.34,468.1813 1422.81,444.9113 1476.79,475.8913 C1496.95,487.4613 1511.75,510.5013 1520.06,526.3013 " fill="none" id="C_models&lt;-I_trans" style="stroke: #555555; stroke-width: 1.0; stroke-dasharray: 7.0,7.0;"/><polygon fill="#555555" points="732.84,334.0713,738.037,342.4374,736.976,336.8809,742.5324,335.8198,732.84,334.0713" style="stroke: #555555; stroke-width: 1.0;"/><!--MD5=[f0b0e8f64b39a3796e4947c690ebcd4f]
reverse link C_models to P_nodes--><path d="M712.03,339.4313 C715.71,405.3713 726.59,600.2113 729.86,658.6413 " fill="none" id="C_models&lt;-P_nodes" style="stroke: #555555; stroke-width: 1.0; stroke-dasharray: 7.0,7.0;"/><polygon fill="#555555" points="711.73,334.1813,708.25,343.3949,712.0152,339.1732,716.2369,342.9385,711.73,334.1813" style="stroke: #555555; stroke-width: 1.0;"/><!--MD5=[5d54bc61075f8010f91b04be828b8868]
reverse link C_models to O_router--><path d="M699.85,338.4913 C691.75,352.3813 679.58,370.1113 664.79,381.8913 C579.71,449.6813 537.1,429.3113 438.79,475.8913 C359.55,513.4413 342.43,528.1313 264.79,568.8913 C194.4,605.8513 149,584.1413 105.79,650.8913 C75.53,697.6513 85.78,768.2613 92.66,800.1713 " fill="none" id="C_models&lt;-O_router" style="stroke: #555555; stroke-width: 1.0; stroke-dasharray: 7.0,7.0;"/><polygon fill="#555555" points="702.44,333.9413,694.4977,339.7653,699.9562,338.2808,701.4408,343.7394,702.44,333.9413" style="stroke: #555555; stroke-width: 1.0;"/><!--MD5=[3b37b2b56d8946f92d5081d5a747bd06]
reverse link C_models to ORCH_coord--><path d="M694,338.0513 C686.96,345.4113 678.23,353.0513 668.79,357.8913 C580.58,403.1213 462.97,413.8513 397.37,416.1113 " fill="none" id="C_models&lt;-ORCH_coord" style="stroke: #555555; stroke-width: 1.0; stroke-dasharray: 7.0,7.0;"/><polygon fill="#555555" points="697.73,334.0213,688.68,337.9068,694.3327,337.6899,694.5496,343.3426,697.73,334.0213" style="stroke: #555555; stroke-width: 1.0;"/><!--MD5=[4546b69e79b2a78856dc537f3a36a56b]
reverse link C_const to ORCH_coord--><path d="M533.3,338.0113 C518.04,354.5713 497.27,376.0013 486.79,381.8913 C459.38,397.3113 425.12,405.9213 397.47,410.6813 " fill="none" id="C_const&lt;-ORCH_coord" style="stroke: #555555; stroke-width: 1.0; stroke-dasharray: 7.0,7.0;"/><polygon fill="#555555" points="537.05,333.9213,528.0157,337.8433,533.6675,337.6035,533.9073,343.2553,537.05,333.9213" style="stroke: #555555; stroke-width: 1.0;"/><!--MD5=[434dbf52895f435590b8ca044a042a07]
reverse link C_events to P_nodes--><path d="M640.02,338.5513 C655.37,368.3613 682.7,424.8013 697.79,475.8913 C698.12,477.0013 720.22,611.1713 728.07,658.8313 " fill="none" id="C_events&lt;-P_nodes" style="stroke: #555555; stroke-width: 1.0; stroke-dasharray: 7.0,7.0;"/><polygon fill="#555555" points="637.66,334.0013,638.2454,343.8328,639.9587,338.4416,645.3498,340.1549,637.66,334.0013" style="stroke: #555555; stroke-width: 1.0;"/><!--MD5=[3c5b9c73ac8fa1f3ab7be5a991dac6df]
reverse link C_events to O_router--><path d="M610.68,337.9513 C604.15,344.7413 596.49,352.0313 588.79,357.8913 C515.47,413.6613 491.33,420.0613 407.79,458.8913 C388.41,467.9013 382.48,467.5613 362.79,475.8913 C309.42,498.4813 170.14,548.4213 126.79,586.8913 C71.17,636.2613 81.33,675.2113 86.79,749.3913 C88.08,766.8813 91.22,786.7013 93.64,800.3213 " fill="none" id="C_events&lt;-O_router" style="stroke: #555555; stroke-width: 1.0; stroke-dasharray: 7.0,7.0;"/><polygon fill="#555555" points="614.18,334.2513,605.0836,338.027,610.7385,337.8785,610.887,343.5334,614.18,334.2513" style="stroke: #555555; stroke-width: 1.0;"/><!--MD5=[0c9d57310f93a083b715c99fbbc35d33]
link I_trans to I_price--><path d="M1515.97,561.3913 C1501.48,580.6513 1475.32,612.4513 1446.79,632.8913 C1431.89,643.5713 1413.88,652.4213 1397.5,659.2313 " fill="none" id="I_trans-&gt;I_price" style="stroke: #555555; stroke-width: 1.0;"/><polygon fill="#555555" points="1392.47,661.2713,1402.314,661.58,1397.1005,659.3848,1399.2956,654.1713,1392.47,661.2713" style="stroke: #555555; stroke-width: 1.0;"/><text fill="#000000" font-family="sans-serif" font-size="11" lengthAdjust="spacingAndGlyphs" textLength="93" x="1494.79" y="614.6502">PriceEntry stream</text><!--MD5=[3c531494caa4a55b82d7dd8648c2d96d]
link I_price to P_nodes--><path d="M1309.13,676.3913 C1195.44,676.3913 881.03,676.3913 770.14,676.3913 " fill="none" id="I_price-&gt;P_nodes" style="stroke: #555555; stroke-width: 1.0;"/><polygon fill="#555555" points="765.01,676.3913,774.01,680.3913,770.01,676.3913,774.01,672.3913,765.01,676.3913" style="stroke: #555555; stroke-width: 1.0;"/><text fill="#000000" font-family="sans-serif" font-size="11" lengthAdjust="spacingAndGlyphs" textLength="143" x="965.54" y="670.1502">PriceSeries via PricingNode</text><!--MD5=[441c0995466bd88cb3b08c08b2566d6c]
link I_fc to P_nodes--><path d="M1388.2,567.3813 C1386.72,567.9313 1385.26,568.4313 1383.79,568.8913 C1354.08,578.2413 1268.58,566.7813 1244.79,586.8913 C1228.48,600.6913 1247.41,619.4513 1230.79,632.8913 C1195.25,661.6413 881.8,671.8213 770.11,674.5513 " fill="none" id="I_fc-&gt;P_nodes" style="stroke: #555555; stroke-width: 1.0;"/><polygon fill="#555555" points="764.95,674.6713,774.0498,678.4387,769.9483,674.5428,773.8442,670.4413,764.95,674.6713" style="stroke: #555555; stroke-width: 1.0;"/><text fill="#000000" font-family="sans-serif" font-size="11" lengthAdjust="spacingAndGlyphs" textLength="198" x="1245.79" y="614.6502">GenerationSeries via GenerationNode</text><!--MD5=[5e33677d2a14a7694ea24360aa5ab257]
link I_gen to P_nodes--><path d="M1190.37,558.9613 C1175.86,562.7713 1159.78,566.5013 1144.79,568.8913 C1022.09,588.5013 983.65,547.5313 865.79,586.8913 C821.89,601.5513 778.45,634.1313 753.14,655.4113 " fill="none" id="I_gen-&gt;P_nodes" style="stroke: #555555; stroke-width: 1.0;"/><polygon fill="#555555" points="749.24,658.7213,758.6938,655.9598,753.0564,655.491,753.5252,649.8536,749.24,658.7213" style="stroke: #555555; stroke-width: 1.0;"/><text fill="#000000" font-family="sans-serif" font-size="11" lengthAdjust="spacingAndGlyphs" textLength="141" x="866.79" y="614.6502">ObservedGenerationSeries</text><!--MD5=[8b15ec3ceac0b3d677b915180115b9b1]
link I_bat to P_nodes--><path d="M1295.11,567.2213 C1293.34,567.8313 1291.56,568.4013 1289.79,568.8913 C1236.57,583.7513 1090.38,560.5713 1041.79,586.8913 C1019.21,599.1313 1028.87,619.7613 1006.79,632.8913 C967.5,656.2613 836.32,668.2613 769.96,672.9613 " fill="none" id="I_bat-&gt;P_nodes" style="stroke: #555555; stroke-width: 1.0;"/><polygon fill="#555555" points="764.91,673.3113,774.1728,676.6581,769.8972,672.9541,773.6012,668.6785,764.91,673.3113" style="stroke: #555555; stroke-width: 1.0;"/><text fill="#000000" font-family="sans-serif" font-size="11" lengthAdjust="spacingAndGlyphs" textLength="189" x="1042.79" y="614.6502">BatteryStatus via BatteryStatusNode</text><!--MD5=[e2dd025cbd3353a828119e669fee802a]
reverse link P_engine to P_nodes--><path d="M657.09,565.9313 C668.5,583.8613 685.47,610.2313 700.79,632.8913 C706.56,641.4213 713.14,650.7813 718.67,658.5413 " fill="none" id="P_engine&lt;-P_nodes" style="stroke: #555555; stroke-width: 1.0; stroke-dasharray: 7.0,7.0;"/><polygon fill="#555555" points="654.31,561.5613,655.7736,571.3008,656.9972,565.7779,662.5201,567.0014,654.31,561.5613" style="stroke: #555555; stroke-width: 1.0;"/><!--MD5=[8a6576ca9e30b98078e4b1ae602f575c]
link P_nodes to P_tariff--><path d="M764.94,677.1213 C830.09,678.2713 974.01,689.0313 1067.79,757.3913 C1080.83,766.8913 1090.06,782.6813 1095.91,795.6113 " fill="none" id="P_nodes-&gt;P_tariff" style="stroke: #555555; stroke-width: 1.0;"/><polygon fill="#555555" points="1097.92,800.2213,1098.0143,790.3729,1095.9332,795.633,1090.6731,793.5519,1097.92,800.2213" style="stroke: #555555; stroke-width: 1.0;"/><!--MD5=[0f35fa5a61d2bb7906536fdea7ed2a8d]
link P_nodes to P_bat--><path d="M696.73,684.6213 C654.02,695.0113 580.15,717.4413 528.79,757.3913 C515.53,767.7013 504.53,783.1713 496.97,795.7513 " fill="none" id="P_nodes-&gt;P_bat" style="stroke: #555555; stroke-width: 1.0;"/><polygon fill="#555555" points="494.35,800.2413,502.3518,794.4992,496.8782,795.9276,495.4499,790.4541,494.35,800.2413" style="stroke: #555555; stroke-width: 1.0;"/><!--MD5=[766faf6ec3e109fec858d55024bf518a]
link P_nodes to P_calc--><path d="M705.75,694.0113 C683.62,709.2413 651.05,733.0713 625.79,757.3913 C613.43,769.2913 601.16,784.2013 591.99,796.1213 " fill="none" id="P_nodes-&gt;P_calc" style="stroke: #555555; stroke-width: 1.0;"/><polygon fill="#555555" points="588.75,800.3613,597.38,795.6154,591.7751,796.3802,591.0102,790.7753,588.75,800.3613" style="stroke: #555555; stroke-width: 1.0;"/><!--MD5=[bf7995c8aeccccab5ef71030697d2a1a]
link P_nodes to P_opt--><path d="M724.03,693.9413 C713.7,719.2213 694,767.4413 682.58,795.3913 " fill="none" id="P_nodes-&gt;P_opt" style="stroke: #555555; stroke-width: 1.0;"/><polygon fill="#555555" points="680.55,800.3613,687.65,793.5357,682.4365,795.7309,680.2413,790.5173,680.55,800.3613" style="stroke: #555555; stroke-width: 1.0;"/><!--MD5=[42a1cee08bffddf620c860e2383bc12d]
link P_nodes to P_ev--><path d="M736.49,693.9413 C745.19,719.2213 761.78,767.4413 771.4,795.3913 " fill="none" id="P_nodes-&gt;P_ev" style="stroke: #555555; stroke-width: 1.0;"/><polygon fill="#555555" points="773.11,800.3613,773.9612,790.5493,771.4818,795.6339,766.3973,793.1544,773.11,800.3613" style="stroke: #555555; stroke-width: 1.0;"/><!--MD5=[445a67cdecff4b364de43bc2174b22ba]
link P_nodes to P_cp--><path d="M753.71,694.0713 C775.24,709.9313 808.19,734.6713 835.79,757.3913 C848.1,767.5213 861.28,779.0613 872.67,789.2713 " fill="none" id="P_nodes-&gt;P_cp" style="stroke: #555555; stroke-width: 1.0;"/><polygon fill="#555555" points="876.46,792.6813,872.4462,783.6875,872.7435,789.3365,867.0945,789.6338,876.46,792.6813" style="stroke: #555555; stroke-width: 1.0;"/><!--MD5=[eead7bd297f356788f521ac27f5ef15a]
link P_nodes to P_bl--><path d="M765.14,682.7013 C814.12,691.5813 905.26,713.0113 969.79,757.3913 C981.67,765.5613 992.23,777.3813 1000.47,788.3413 " fill="none" id="P_nodes-&gt;P_bl" style="stroke: #555555; stroke-width: 1.0;"/><polygon fill="#555555" points="1003.63,792.6513,1001.5452,783.0257,1000.6781,788.6157,995.0881,787.7487,1003.63,792.6513" style="stroke: #555555; stroke-width: 1.0;"/><!--MD5=[812b9557322faebcf3cc487129216c8d]
link P_prof to P_nodes--><path d="M517.51,569.2513 C519.43,589.1513 525.36,616.5513 542.79,632.8913 C564,652.7613 642.96,665.2313 691.55,671.2013 " fill="none" id="P_prof-&gt;P_nodes" style="stroke: #FF5252; stroke-width: 1.0; stroke-dasharray: 7.0,7.0;"/><polygon fill="#FF5252" points="696.74,671.8213,688.2841,666.7718,691.776,671.2222,687.3256,674.7141,696.74,671.8213" style="stroke: #FF5252; stroke-width: 1.0;"/><text fill="#000000" font-family="sans-serif" font-size="11" font-weight="bold" lengthAdjust="spacingAndGlyphs" textLength="48" x="581.79" y="599.6502">#FFCDD2</text><text fill="#000000" font-family="sans-serif" font-size="11" lengthAdjust="spacingAndGlyphs" textLength="110" x="550.79" y="614.6321">no ProfitabilityNode,</text><text fill="#000000" font-family="sans-serif" font-size="11" lengthAdjust="spacingAndGlyphs" textLength="124" x="543.79" y="629.614">no coordinator hookup</text><!--MD5=[63f47c6968f6ea15b9e80663b8e07fbc]
link P_nodes to O_router--><path d="M696.66,683.9313 C639.86,694.5213 522.27,715.2813 421.79,725.3913 C345.65,733.0513 325.5,722.1813 249.79,733.3913 C206.72,739.7713 192.53,735.6513 154.79,757.3913 C137.8,767.1813 122.5,783.3513 111.89,796.3613 " fill="none" id="P_nodes-&gt;O_router" style="stroke: #555555; stroke-width: 1.0;"/><polygon fill="#555555" points="108.75,800.2913,117.4937,795.7584,111.8717,796.3856,111.2445,790.7636,108.75,800.2913" style="stroke: #555555; stroke-width: 1.0;"/><text fill="#000000" font-family="sans-serif" font-size="11" lengthAdjust="spacingAndGlyphs" textLength="87" x="250.79" y="746.1502">ControlEvent list</text><!--MD5=[f4ddb75491f3cea0a354a5c7aedf9998]
link O_router to O_inv--><path d="M95.27,835.7713 C93.76,852.4513 91.44,878.0613 89.79,896.3413 " fill="none" id="O_router-&gt;O_inv" style="stroke: #555555; stroke-width: 1.0;"/><polygon fill="#555555" points="89.3,901.7613,94.1073,893.1654,89.7578,896.7823,86.1409,892.4329,89.3,901.7613" style="stroke: #555555; stroke-width: 1.0;"/><!--MD5=[abcdf37b2d8949c1479d5ff05d7f31c5]
link O_router to O_ev--><path d="M111.55,835.7713 C126.52,852.8813 149.69,879.3913 165.74,897.7413 " fill="none" id="O_router-&gt;O_ev" style="stroke: #555555; stroke-width: 1.0;"/><polygon fill="#555555" points="169.25,901.7613,166.3161,892.3596,165.9504,898.0046,160.3054,897.639,169.25,901.7613" style="stroke: #555555; stroke-width: 1.0;"/><!--MD5=[a425ffe798976d424066847ab07b4888]
link P_nodes to O_dash--><path d="M696.55,682.6213 C611.57,695.6213 396.81,728.7313 381.79,733.3913 C329.55,749.6113 273.07,778.6613 238.56,797.8613 " fill="none" id="P_nodes-&gt;O_dash" style="stroke: #555555; stroke-width: 1.0;"/><polygon fill="#555555" points="234.05,800.3913,243.8588,799.5035,238.4174,797.957,239.9639,792.5157,234.05,800.3913" style="stroke: #555555; stroke-width: 1.0;"/><text fill="#000000" font-family="sans-serif" font-size="11" lengthAdjust="spacingAndGlyphs" textLength="157" x="382.79" y="746.1502">DashboardData (pure builder)</text><!--MD5=[ddc1d15dd9f5576b86653b24b14ac3e4]
link ORCH_coord to I_trans--><path d="M397.32,422.1113 C522.68,431.3813 862.84,455.6613 1146.79,467.8913 C1165.12,468.6813 1460.46,467.5513 1476.79,475.8913 C1495.67,485.5313 1509.53,505.7513 1517.99,521.4613 " fill="none" id="ORCH_coord-&gt;I_trans" style="stroke: #555555; stroke-width: 1.0;"/><polygon fill="#555555" points="1520.45,526.1813,1519.8517,516.3507,1518.1455,521.7441,1512.7521,520.0379,1520.45,526.1813" style="stroke: #555555; stroke-width: 1.0;"/><!--MD5=[3de1b41f66da7d1794d2344fd59d4b48]
link ORCH_coord to P_engine--><path d="M397.31,420.8113 C448.93,425.3713 530.45,438.4513 589.79,475.8913 C607.77,487.2313 622.45,506.6613 631.94,521.6913 " fill="none" id="ORCH_coord-&gt;P_engine" style="stroke: #555555; stroke-width: 1.0;"/><polygon fill="#555555" points="634.71,526.2013,633.3852,516.442,632.0831,521.947,626.5782,520.645,634.71,526.2013" style="stroke: #555555; stroke-width: 1.0;"/><!--MD5=[f618d388f17078dc9aea8e7351a82a6b]
link ORCH_coord to O_router--><path d="M298.28,427.6313 C264.07,435.8913 218.95,450.7113 185.79,475.8913 C110.5,533.0913 92.36,560.4413 64.79,650.8913 C52.03,692.7713 55.18,706.6813 64.79,749.3913 C68.47,765.7313 76.58,782.7613 83.72,795.6313 " fill="none" id="ORCH_coord-&gt;O_router" style="stroke: #555555; stroke-width: 1.0;"/><polygon fill="#555555" points="86.29,800.1713,85.3533,790.3671,83.8339,795.8161,78.3849,794.2968,86.29,800.1713" style="stroke: #555555; stroke-width: 1.0;"/><!--MD5=[90371872fbad78a27f3767fe3738c7d5]
link ORCH_coord to O_inv--><path d="M298.05,421.0513 C218.13,426.3213 66.12,440.7713 26.79,475.8913 C3.62,496.5913 6.79,511.8113 6.79,542.8913 C6.79,542.8913 6.79,542.8913 6.79,818.8913 C6.79,841.1113 8.25,848.5413 20.79,866.8913 C29.42,879.5113 42.13,890.3913 54.16,898.8513 " fill="none" id="ORCH_coord-&gt;O_inv" style="stroke: #555555; stroke-width: 1.0;"/><polygon fill="#555555" points="58.55,901.8613,53.3862,893.4747,54.4252,899.0353,48.8646,900.0744,58.55,901.8613" style="stroke: #555555; stroke-width: 1.0;"/><!--MD5=[4744fc4cb4ec2bd8a6ebcd2b3cb0db99]
link ORCH_coord to O_ev--><path d="M298.26,421.4013 C245.01,426.4613 159.33,439.9413 94.79,475.8913 C58.28,496.2313 28.79,501.0913 28.79,542.8913 C28.79,542.8913 28.79,542.8913 28.79,818.8913 C28.79,840.7813 24.79,850.9613 39.79,866.8913 C69.01,897.9213 91.96,878.7613 131.79,893.8913 C136.41,895.6413 141.19,897.6313 145.89,899.7113 " fill="none" id="ORCH_coord-&gt;O_ev" style="stroke: #555555; stroke-width: 1.0;"/><polygon fill="#555555" points="150.56,901.8013,143.9836,894.4698,145.9975,899.756,140.7112,901.7699,150.56,901.8013" style="stroke: #555555; stroke-width: 1.0;"/><!--MD5=[9eab362e4af1e30a1ac3b160bd500d82]
reverse link ORCH_dbg to ORCH_coord--><path d="M271.96,336.7013 C252.62,348.7813 235.88,365.1713 247.79,381.8913 C259.41,398.1913 279.27,406.8613 298.24,411.4513 " fill="none" id="ORCH_dbg&lt;-ORCH_coord" style="stroke: #555555; stroke-width: 1.0; stroke-dasharray: 7.0,7.0;"/><polygon fill="#555555" points="276.39,334.0413,266.6175,335.2657,272.1088,336.6243,270.7503,342.1156,276.39,334.0413" style="stroke: #555555; stroke-width: 1.0;"/><text fill="#000000" font-family="sans-serif" font-size="11" lengthAdjust="spacingAndGlyphs" textLength="151" x="248.79" y="378.6502">primary/secondary snapshot</text><!--MD5=[fa98721eeb75fa177e843cb1c6d07d04]
link R_init to ORCH_coord--><path d="M401.11,215.0713 C410.85,248.8713 428,326.8713 398.79,381.8913 C395.76,387.6113 391.31,392.5513 386.27,396.7713 " fill="none" id="R_init-&gt;ORCH_coord" style="stroke: #555555; stroke-width: 1.0;"/><polygon fill="#555555" points="382.33,399.8513,391.8828,397.4546,386.2675,396.7698,386.9523,391.1545,382.33,399.8513" style="stroke: #555555; stroke-width: 1.0;"/><!--MD5=[7255f9dc29c4bc91843b18b461e8bb85]
link R_init to ORCH_dbg--><path d="M383.94,214.9113 C368.95,235.7813 343.14,271.7213 326.8,294.4913 " fill="none" id="R_init-&gt;ORCH_dbg" style="stroke: #555555; stroke-width: 1.0;"/><polygon fill="#555555" points="323.86,298.5813,332.3593,293.6053,326.777,294.5204,325.8619,288.9381,323.86,298.5813" style="stroke: #555555; stroke-width: 1.0;"/><!--MD5=[50f5e8f57080ab088d8cfedfd5cbe6a4]
link R_sens to ORCH_coord--><path d="M651.57,215.1613 C644.45,223.6713 634.72,233.3413 623.79,238.8913 C578.12,262.0813 550.27,224.4813 509.79,255.8913 C470.93,286.0513 495.8,318.1513 466.79,357.8913 C457.13,371.1313 452.89,373.5313 438.79,381.8913 C427.51,388.5913 414.69,394.4013 402.31,399.2413 " fill="none" id="R_sens-&gt;ORCH_coord" style="stroke: #555555; stroke-width: 1.0;"/><polygon fill="#555555" points="397.41,401.1213,407.245,401.6441,402.0804,399.336,404.3885,394.1714,397.41,401.1213" style="stroke: #555555; stroke-width: 1.0;"/><!--MD5=[e96a126f57dab585efb6032ea0d5c046]
link R_sw to ORCH_coord--><path d="M467.26,215.1113 C462.25,224.3013 456.25,236.0213 451.79,246.8913 C427.98,305.0413 449.42,333.1213 409.79,381.8913 C405.06,387.7213 399.07,392.7213 392.68,396.9713 " fill="none" id="R_sw-&gt;ORCH_coord" style="stroke: #555555; stroke-width: 1.0;"/><polygon fill="#555555" points="388.21,399.7913,397.9586,398.3897,392.4436,397.1311,393.7022,391.616,388.21,399.7913" style="stroke: #555555; stroke-width: 1.0;"/><!--MD5=[9ba5f5fd581d7b8ab7a3e7af99a898f2]
link R_cfg to ORCH_coord--><path d="M551.88,214.9913 C542.13,223.2313 529.5,232.7113 516.79,238.8913 C498.31,247.8813 485.43,238.9513 473.79,255.8913 C447.1,294.7313 467.78,316.7513 444.79,357.8913 C437.74,370.5213 434.49,373.3713 422.79,381.8913 C414.63,387.8413 405.28,393.1313 396.02,397.6713 " fill="none" id="R_cfg-&gt;ORCH_coord" style="stroke: #555555; stroke-width: 1.0;"/><polygon fill="#555555" points="391.48,399.8413,401.3251,399.5701,395.9914,397.6856,397.8759,392.3518,391.48,399.8413" style="stroke: #555555; stroke-width: 1.0;"/><!--MD5=[1759a44be97fb011216129f5c0957ebb]
link P_bl to GMN83--><path d="M1037.28,843.0713 C1045.57,852.1313 1056.11,861.5113 1067.79,866.8913 C1146.07,902.9413 1376.57,913.8313 1523.21,917.0713 " fill="none" id="P_bl-GMN83" style="stroke: #555555; stroke-width: 1.0; stroke-dasharray: 7.0,7.0;"/><!--MD5=[a7ff1c78fab960a394079bedcba35b32]
@startuml sunSale_modules
title sunSale — Module map with refactor status

skinparam packageStyle rectangle
skinparam defaultFontSize 11
skinparam nodesep 10
skinparam ranksep 35
skinparam shadowing false

skinparam rectangle {
  FontSize 11
  BorderColor #333
}
skinparam package {
  BorderColor #444
  FontSize 12
  FontStyle bold
}
skinparam note {
  BackgroundColor #FFFDE7
  BorderColor #888
  FontSize 10
}
skinparam ArrowColor #555


legend top left
  | Colour | Status | Meaning |
  |<#C8E6C9>| refactored | dedicated reference doc under docs/ |
  |<#FFCDD2>| missing | partial integration; *_missing.md exists or needed |
  |<#ECEFF1>| old | pre-refactor, no doc, behaviour read from code |
  |<#BBDEFB>| external | Home Assistant runtime |
endlegend

rectangle "Home Assistant\n(hass.states / services)" as HA #BBDEFB

package "contract/  (pure data — no internal deps)" {
  rectangle "const.py"  as C_const  #ECEFF1
  rectangle "events.py" as C_events #ECEFF1
  rectangle "models.py" as C_models #ECEFF1
}

package "inbound/  (HA-read + normalise)" {
  rectangle "translators.py"        as I_trans #ECEFF1
  rectangle "pricing.py\n[refactored]"     as I_price   #C8E6C9
  rectangle "forecast.py\n[refactored]"    as I_fc      #C8E6C9
  rectangle "generation.py\n[refactored]"  as I_gen     #C8E6C9
  rectangle "battery.py\n[refactored]"     as I_bat     #C8E6C9
}

package "pipeline/  (pure-Python DAG)" {
  rectangle "dag_engine.py"      as P_engine  #ECEFF1
  rectangle "nodes.py"           as P_nodes   #ECEFF1
  rectangle "tariff.py"          as P_tariff  #ECEFF1
  rectangle "battery.py"         as P_bat     #ECEFF1
  rectangle "calculator.py"      as P_calc    #ECEFF1
  rectangle "optimizer.py"       as P_opt     #ECEFF1
  rectangle "ev_scheduler.py"    as P_ev      #ECEFF1
  rectangle "charging_profile.py\n[refactored]" as P_cp  #C8E6C9
  rectangle "base_load.py\n[refactored]"        as P_bl  #C8E6C9
  rectangle "profitability.py\n[missing — not wired]" as P_prof #FFCDD2
}

package "outbound/  (HA-write + presentation)" {
  rectangle "event_router.py" as O_router #ECEFF1
  rectangle "inverter.py"     as O_inv    #ECEFF1
  rectangle "ev_charger.py"   as O_ev     #ECEFF1
  rectangle "dashboard.py"    as O_dash   #ECEFF1
}

package "orchestration/  (glue)" {
  rectangle "coordinator.py" as ORCH_coord #ECEFF1
  rectangle "debug_view.py"  as ORCH_dbg   #ECEFF1
}

package "HA root entry points" {
  rectangle "__init__.py"   as R_init   #ECEFF1
  rectangle "config_flow.py" as R_cfg   #ECEFF1
  rectangle "sensor.py"     as R_sens   #ECEFF1
  rectangle "switch.py"     as R_sw     #ECEFF1
}


HA - -> I_trans
HA - -> O_inv
HA - -> O_ev
R_init - -> HA
R_cfg  - -> HA
R_sens - -> HA
R_sw   - -> HA

C_models <.. I_trans
C_models <.. P_nodes
C_models <.. O_router
C_models <.. ORCH_coord
C_const  <.. ORCH_coord
C_events <.. P_nodes
C_events <.. O_router

I_trans  - -> I_price : "PriceEntry stream"
I_price  - -> P_nodes  : "PriceSeries via PricingNode"
I_fc     - -> P_nodes  : "GenerationSeries via GenerationNode"
I_gen    - -> P_nodes  : "ObservedGenerationSeries"
I_bat    - -> P_nodes  : "BatteryStatus via BatteryStatusNode"

P_engine <.. P_nodes
P_nodes  - -> P_tariff
P_nodes  - -> P_bat
P_nodes  - -> P_calc
P_nodes  - -> P_opt
P_nodes  - -> P_ev
P_nodes  - -> P_cp
P_nodes  - -> P_bl

P_prof ..> P_nodes #FF5252 : "**#FFCDD2**\nno ProfitabilityNode,\nno coordinator hookup"

P_nodes - -> O_router : "ControlEvent list"
O_router - -> O_inv
O_router - -> O_ev
P_nodes - -> O_dash    : "DashboardData (pure builder)"

ORCH_coord - -> I_trans
ORCH_coord - -> P_engine
ORCH_coord - -> O_router
ORCH_coord - -> O_inv
ORCH_coord - -> O_ev
ORCH_dbg   <.. ORCH_coord : "primary/secondary snapshot"

R_init  - -> ORCH_coord
R_init  - -> ORCH_dbg
R_sens  - -> ORCH_coord
R_sw    - -> ORCH_coord
R_cfg   - -> ORCH_coord

note bottom of P_prof
  Implemented as pure helpers; types in contract/models.py;
  exercised only by tests/test_profitability.py.
  See docs/MODULES.md §9 for the integration tail.
end note

note bottom of P_bl
  base_load_missing.md items are merged
  (translator, persistence, nodes, sensors).
  Doc retained for 0.2 kW stub + local-tz rationale.
end note

@enduml

PlantUML version 1.2020.02(Sun Mar 01 12:22:07 EET 2020)
(GPL source distribution)
Java Runtime: OpenJDK Runtime Environment
JVM: OpenJDK 64-Bit Server VM
Java Version: 21.0.10+7-Ubuntu-124.04
Operating System: Linux
Default Encoding: UTF-8
Language: en
Country: US
--></g></svg>