<?xml version="1.0" encoding="UTF-8" standalone="no"?><svg xmlns="http://www.w3.org/2000/svg" xmlns:xlink="http://www.w3.org/1999/xlink" contentScriptType="application/ecmascript" contentStyleType="text/css" height="987px" preserveAspectRatio="none" style="width:1782px;height:987px;" version="1.1" viewBox="0 0 1782 987" width="1782px" zoomAndPan="magnify"><defs/><g><text fill="#000000" font-family="sans-serif" font-size="11" lengthAdjust="spacingAndGlyphs" textLength="228" x="776" y="11.7589">sunSale — Module map with refactor status</text><rect fill="#DDDDDD" height="88.9094" rx="5" ry="5" style="stroke: #000000; stroke-width: 1.0;" width="383" x="8" y="22.9819"/><text fill="#000000" font-family="sans-serif" font-size="11" font-weight="bold" lengthAdjust="spacingAndGlyphs" textLength="36" x="17" y="41.7408">Colour</text><text fill="#000000" font-family="sans-serif" font-size="11" font-weight="bold" lengthAdjust="spacingAndGlyphs" textLength="35" x="59" y="41.7408">Status</text><text fill="#000000" font-family="sans-serif" font-size="11" font-weight="bold" lengthAdjust="spacingAndGlyphs" textLength="48" x="120" y="41.7408">Meaning</text><rect fill="#C8E6C9" height="14.9819" style="stroke: none; stroke-width: 1.0;" width="42" x="14" y="44.9638"/><text fill="#000000" font-family="sans-serif" font-size="11" lengthAdjust="spacingAndGlyphs" textLength="0" x="17" y="56.7227"/><text fill="#000000" font-family="sans-serif" font-size="11" lengthAdjust="spacingAndGlyphs" textLength="55" x="59" y="56.7227">refactored</text><text fill="#000000" font-family="sans-serif" font-size="11" lengthAdjust="spacingAndGlyphs" textLength="192" x="120" y="56.7227">dedicated reference doc under docs/</text><rect fill="#FFCDD2" height="14.9819" style="stroke: none; stroke-width: 1.0;" width="42" x="14" y="59.9457"/><text fill="#000000" font-family="sans-serif" font-size="11" lengthAdjust="spacingAndGlyphs" textLength="0" x="17" y="71.7046"/><text fill="#000000" font-family="sans-serif" font-size="11" lengthAdjust="spacingAndGlyphs" textLength="40" x="59" y="71.7046">missing</text><text fill="#000000" font-family="sans-serif" font-size="11" lengthAdjust="spacingAndGlyphs" textLength="262" x="120" y="71.7046">partial integration; *_missing.md exists or needed</text><rect fill="#ECEFF1" height="14.9819" style="stroke: none; stroke-width: 1.0;" width="42" x="14" y="74.9276"/><text fill="#000000" font-family="sans-serif" font-size="11" lengthAdjust="spacingAndGlyphs" textLength="0" x="17" y="86.6865"/><text fill="#000000" font-family="sans-serif" font-size="11" lengthAdjust="spacingAndGlyphs" textLength="17" x="59" y="86.6865">old</text><text fill="#000000" font-family="sans-serif" font-size="11" lengthAdjust="spacingAndGlyphs" textLength="250" x="120" y="86.6865">pre-refactor, no doc, behaviour read from code</text><rect fill="#BBDEFB" height="14.9819" style="stroke: none; stroke-width: 1.0;" width="42" x="14" y="89.9094"/><text fill="#000000" font-family="sans-serif" font-size="11" lengthAdjust="spacingAndGlyphs" textLength="0" x="17" y="101.6684"/><text fill="#000000" font-family="sans-serif" font-size="11" lengthAdjust="spacingAndGlyphs" textLength="43" x="59" y="101.6684">external</text><text fill="#000000" font-family="sans-serif" font-size="11" lengthAdjust="spacingAndGlyphs" textLength="125" x="120" y="101.6684">Home Assistant runtime</text><line style="stroke: #000000; stroke-width: 1.0;" x1="14" x2="385" y1="29.9819" y2="29.9819"/><line style="stroke: #000000; stroke-width: 1.0;" x1="14" x2="385" y1="44.9638" y2="44.9638"/><line style="stroke: #000000; stroke-width: 1.0;" x1="14" x2="385" y1="59.9457" y2="59.9457"/><line style="stroke: #000000; stroke-width: 1.0;" x1="14" x2="385" y1="74.9276" y2="74.9276"/><line style="stroke: #000000; stroke-width: 1.0;" x1="14" x2="385" y1="89.9094" y2="89.9094"/><line style="stroke: #000000; stroke-width: 1.0;" x1="14" x2="385" y1="104.8913" y2="104.8913"/><line style="stroke: #000000; stroke-width: 1.0;" x1="14" x2="14" y1="29.9819" y2="104.8913"/><line style="stroke: #000000; stroke-width: 1.0;" x1="56" x2="56" y1="29.9819" y2="104.8913"/><line style="stroke: #000000; stroke-width: 1.0;" x1="117" x2="117" y1="29.9819" y2="104.8913"/><line style="stroke: #000000; stroke-width: 1.0;" x1="385" x2="385" y1="29.9819" y2="104.8913"/><!--MD5=[6dfb81d9c71183f52cc7000eb28cdf20]
cluster contract/  (pure data — no internal deps)--><polygon fill="#FFFFFF" points="1127,263.8913,1375,263.8913,1382,286.2354,1387,286.2354,1387,349.8913,1127,349.8913,1127,263.8913" style="stroke: #444444; stroke-width: 1.5;"/><line style="stroke: #444444; stroke-width: 1.5;" x1="1127" x2="1382" y1="286.2354" y2="286.2354"/><text fill="#000000" font-family="sans-serif" font-size="12" font-weight="bold" lengthAdjust="spacingAndGlyphs" textLength="242" x="1131" y="278.7194">contract/  (pure data — no internal deps)</text><!--MD5=[209ed44469a28fb186db099e7e41a311]
cluster inbound/  (HA-read + normalise)--><polygon fill="#FFFFFF" points="28,491.3913,225,491.3913,232,513.7354,730,513.7354,730,607.3913,28,607.3913,28,491.3913" style="stroke: #444444; stroke-width: 1.5;"/><line style="stroke: #444444; stroke-width: 1.5;" x1="28" x2="232" y1="513.7354" y2="513.7354"/><text fill="#000000" font-family="sans-serif" font-size="12" font-weight="bold" lengthAdjust="spacingAndGlyphs" textLength="191" x="32" y="506.2194">inbound/  (HA-read + normalise)</text><!--MD5=[f26ad0405b950fdb0e59151affed5e7e]
cluster pipeline/  (pure-Python DAG)--><polygon fill="#FFFFFF" points="754,498.8913,933,498.8913,940,521.2354,1358,521.2354,1358,881.8913,754,881.8913,754,498.8913" style="stroke: #444444; stroke-width: 1.5;"/><line style="stroke: #444444; stroke-width: 1.5;" x1="754" x2="940" y1="521.2354" y2="521.2354"/><text fill="#000000" font-family="sans-serif" font-size="12" font-weight="bold" lengthAdjust="spacingAndGlyphs" textLength="173" x="758" y="513.7194">pipeline/  (pure-Python DAG)</text><!--MD5=[a4d28af375b565af9dc2bbe1bd73b9b2]
cluster outbound/  (HA-write + presentation)--><polygon fill="#FFFFFF" points="1501,788.3913,1727,788.3913,1734,810.7354,1740,810.7354,1740,975.8913,1501,975.8913,1501,788.3913" style="stroke: #444444; stroke-width: 1.5;"/><line style="stroke: #444444; stroke-width: 1.5;" x1="1501" x2="1734" y1="810.7354" y2="810.7354"/><text fill="#000000" font-family="sans-serif" font-size="12" font-weight="bold" lengthAdjust="spacingAndGlyphs" textLength="220" x="1505" y="803.2194">outbound/  (HA-write + presentation)</text><!--MD5=[8bb44286e6115f57ca12b99d85b97c42]
cluster orchestration/  (glue)--><polygon fill="#FFFFFF" points="573,263.8913,705,263.8913,712,286.2354,768,286.2354,768,458.3913,573,458.3913,573,263.8913" style="stroke: #444444; stroke-width: 1.5;"/><line style="stroke: #444444; stroke-width: 1.5;" x1="573" x2="712" y1="286.2354" y2="286.2354"/><text fill="#000000" font-family="sans-serif" font-size="12" font-weight="bold" lengthAdjust="spacingAndGlyphs" textLength="126" x="577" y="278.7194">orchestration/  (glue)</text><!--MD5=[1e19a5f86b747fe24fa32eeabf26b105]
cluster HA root entry points--><polygon fill="#FFFFFF" points="348,144.8913,474,144.8913,481,167.2354,721,167.2354,721,230.8913,348,230.8913,348,144.8913" style="stroke: #444444; stroke-width: 1.5;"/><line style="stroke: #444444; stroke-width: 1.5;" x1="348" x2="481" y1="167.2354" y2="167.2354"/><text fill="#000000" font-family="sans-serif" font-size="12" font-weight="bold" lengthAdjust="spacingAndGlyphs" textLength="120" x="352" y="159.7194">HA root entry points</text><!--MD5=[d12dde9f376e83ecdecb80f63271259b]
entity C_const--><rect fill="#ECEFF1" height="34.9819" style="stroke: #333333; stroke-width: 1.5;" width="64" x="1143" y="298.8913"/><text fill="#000000" font-family="sans-serif" font-size="11" lengthAdjust="spacingAndGlyphs" textLength="44" x="1153" y="320.6502">const.py</text><!--MD5=[5e82214aac5add28f7029fb776387e80]
entity C_events--><rect fill="#ECEFF1" height="34.9819" style="stroke: #333333; stroke-width: 1.5;" width="70" x="1301" y="298.8913"/><text fill="#000000" font-family="sans-serif" font-size="11" lengthAdjust="spacingAndGlyphs" textLength="50" x="1311" y="320.6502">events.py</text><!--MD5=[67c9c726f3a49f48595f8a2b9800779f]
entity C_models--><rect fill="#ECEFF1" height="34.9819" style="stroke: #333333; stroke-width: 1.5;" width="74" x="1217" y="298.8913"/><text fill="#000000" font-family="sans-serif" font-size="11" lengthAdjust="spacingAndGlyphs" textLength="54" x="1227" y="320.6502">models.py</text><!--MD5=[a61a3cb4976593378efa321f88b5f260]
entity I_price--><rect fill="#C8E6C9" height="64.9457" style="stroke: #333333; stroke-width: 1.5;" width="125" x="588.5" y="526.3913"/><text fill="#000000" font-family="sans-serif" font-size="11" lengthAdjust="spacingAndGlyphs" textLength="53" x="598.5" y="548.1502">pricing.py</text><text fill="#000000" font-family="sans-serif" font-size="11" lengthAdjust="spacingAndGlyphs" textLength="63" x="598.5" y="563.1321">[refactored]</text><text fill="#000000" font-family="sans-serif" font-size="11" lengthAdjust="spacingAndGlyphs" textLength="105" x="598.5" y="578.114">NordpoolTranslator</text><!--MD5=[e78a3645dee9cd00436ed6145ebab111]
entity I_fc--><rect fill="#C8E6C9" height="64.9457" style="stroke: #333333; stroke-width: 1.5;" width="101" x="477.5" y="526.3913"/><text fill="#000000" font-family="sans-serif" font-size="11" lengthAdjust="spacingAndGlyphs" textLength="58" x="487.5" y="548.1502">forecast.py</text><text fill="#000000" font-family="sans-serif" font-size="11" lengthAdjust="spacingAndGlyphs" textLength="63" x="487.5" y="563.1321">[refactored]</text><text fill="#000000" font-family="sans-serif" font-size="11" lengthAdjust="spacingAndGlyphs" textLength="81" x="487.5" y="578.114">SolarTranslator</text><!--MD5=[bc163b9325490ded7729dc6bef994cb6]
entity I_gen--><rect fill="#C8E6C9" height="64.9457" style="stroke: #333333; stroke-width: 1.5;" width="133" x="44.5" y="526.3913"/><text fill="#000000" font-family="sans-serif" font-size="11" lengthAdjust="spacingAndGlyphs" textLength="74" x="54.5" y="548.1502">generation.py</text><text fill="#000000" font-family="sans-serif" font-size="11" lengthAdjust="spacingAndGlyphs" textLength="63" x="54.5" y="563.1321">[refactored]</text><text fill="#000000" font-family="sans-serif" font-size="11" lengthAdjust="spacingAndGlyphs" textLength="113" x="54.5" y="578.114">GenerationTranslator</text><!--MD5=[c8626f5fe81c3f87e44cad23800baa60]
entity I_bat--><rect fill="#C8E6C9" height="64.9457" style="stroke: #333333; stroke-width: 1.5;" width="112" x="188" y="526.3913"/><text fill="#000000" font-family="sans-serif" font-size="11" lengthAdjust="spacingAndGlyphs" textLength="54" x="198" y="548.1502">battery.py</text><text fill="#000000" font-family="sans-serif" font-size="11" lengthAdjust="spacingAndGlyphs" textLength="63" x="198" y="563.1321">[refactored]</text><text fill="#000000" font-family="sans-serif" font-size="11" lengthAdjust="spacingAndGlyphs" textLength="92" x="198" y="578.114">BatteryTranslator</text><!--MD5=[6ad25a9468b3f2db40dfdfd138c8983e]
entity I_hh--><rect fill="#ECEFF1" height="49.9638" style="stroke: #333333; stroke-width: 1.5;" width="157" x="310.5" y="533.8913"/><text fill="#000000" font-family="sans-serif" font-size="11" lengthAdjust="spacingAndGlyphs" textLength="100" x="320.5" y="555.6502">household_load.py</text><text fill="#000000" font-family="sans-serif" font-size="11" lengthAdjust="spacingAndGlyphs" textLength="137" x="320.5" y="570.6321">HouseholdLoadTranslator</text><!--MD5=[6c9e1c13e7aa31a8ee5f8f89fd2468e3]
entity P_engine--><rect fill="#ECEFF1" height="34.9819" style="stroke: #333333; stroke-width: 1.5;" width="97" x="883.5" y="541.3913"/><text fill="#000000" font-family="sans-serif" font-size="11" lengthAdjust="spacingAndGlyphs" textLength="77" x="893.5" y="563.1502">dag_engine.py</text><!--MD5=[c66469118725159774adb448eb25a315]
entity P_nodes--><rect fill="#ECEFF1" height="34.9819" style="stroke: #333333; stroke-width: 1.5;" width="68" x="1067" y="695.3913"/><text fill="#000000" font-family="sans-serif" font-size="11" lengthAdjust="spacingAndGlyphs" textLength="48" x="1077" y="717.1502">nodes.py</text><!--MD5=[c33337a4837c57b12f7c8a02e9a4e19c]
entity P_tariff--><rect fill="#ECEFF1" height="34.9819" style="stroke: #333333; stroke-width: 1.5;" width="62" x="1098" y="823.3913"/><text fill="#000000" font-family="sans-serif" font-size="11" lengthAdjust="spacingAndGlyphs" textLength="42" x="1108" y="845.1502">tariff.py</text><!--MD5=[a17fc9fcf7536eb7ae5c3cd4a7de19a4]
entity P_bat--><rect fill="#ECEFF1" height="34.9819" style="stroke: #333333; stroke-width: 1.5;" width="74" x="1170" y="823.3913"/><text fill="#000000" font-family="sans-serif" font-size="11" lengthAdjust="spacingAndGlyphs" textLength="54" x="1180" y="845.1502">battery.py</text><!--MD5=[eed69c6e39bf1dde401328bff2fb990b]
entity P_calc--><rect fill="#ECEFF1" height="34.9819" style="stroke: #333333; stroke-width: 1.5;" width="87" x="1254.5" y="823.3913"/><text fill="#000000" font-family="sans-serif" font-size="11" lengthAdjust="spacingAndGlyphs" textLength="67" x="1264.5" y="845.1502">calculator.py</text><!--MD5=[b7933d0d11ecb6fdcd56b4c7043279f2]
entity P_opt--><rect fill="#ECEFF1" height="34.9819" style="stroke: #333333; stroke-width: 1.5;" width="86" x="770" y="823.3913"/><text fill="#000000" font-family="sans-serif" font-size="11" lengthAdjust="spacingAndGlyphs" textLength="66" x="780" y="845.1502">optimizer.py</text><!--MD5=[3d5cf3f18b27d0f622301465a4c2668d]
entity P_cp--><rect fill="#C8E6C9" height="49.9638" style="stroke: #333333; stroke-width: 1.5;" width="123" x="866.5" y="815.8913"/><text fill="#000000" font-family="sans-serif" font-size="11" lengthAdjust="spacingAndGlyphs" textLength="103" x="876.5" y="837.6502">charging_profile.py</text><text fill="#000000" font-family="sans-serif" font-size="11" lengthAdjust="spacingAndGlyphs" textLength="63" x="876.5" y="852.6321">[refactored]</text><!--MD5=[1f26cbe748e2770eebe77dc93796c5bc]
entity P_bl--><rect fill="#C8E6C9" height="49.9638" style="stroke: #333333; stroke-width: 1.5;" width="88" x="1000" y="815.8913"/><text fill="#000000" font-family="sans-serif" font-size="11" lengthAdjust="spacingAndGlyphs" textLength="68" x="1010" y="837.6502">base_load.py</text><text fill="#000000" font-family="sans-serif" font-size="11" lengthAdjust="spacingAndGlyphs" textLength="63" x="1010" y="852.6321">[refactored]</text><!--MD5=[77266d2da2ac4bc34c1599774f9de85b]
entity P_prof--><rect fill="#FFCDD2" height="49.9638" style="stroke: #333333; stroke-width: 1.5;" width="136" x="1075" y="533.8913"/><text fill="#000000" font-family="sans-serif" font-size="11" lengthAdjust="spacingAndGlyphs" textLength="78" x="1085" y="555.6502">profitability.py</text><text fill="#000000" font-family="sans-serif" font-size="11" lengthAdjust="spacingAndGlyphs" textLength="116" x="1085" y="570.6321">[missing — not wired]</text><!--MD5=[ca83985bd2fbba7da84016f5000a0ef6]
entity O_router--><rect fill="#ECEFF1" height="34.9819" style="stroke: #333333; stroke-width: 1.5;" width="104" x="1620" y="823.3913"/><text fill="#000000" font-family="sans-serif" font-size="11" lengthAdjust="spacingAndGlyphs" textLength="84" x="1630" y="845.1502">event_router.py</text><!--MD5=[759712d3b7549ca4b64be7b8f00e7b00]
entity O_inv--><rect fill="#ECEFF1" height="34.9819" style="stroke: #333333; stroke-width: 1.5;" width="78" x="1633" y="924.8913"/><text fill="#000000" font-family="sans-serif" font-size="11" lengthAdjust="spacingAndGlyphs" textLength="58" x="1643" y="946.6502">inverter.py</text><!--MD5=[02da6970f2fbee785559da308171999d]
entity O_dash--><rect fill="#ECEFF1" height="34.9819" style="stroke: #333333; stroke-width: 1.5;" width="93" x="1516.5" y="823.3913"/><text fill="#000000" font-family="sans-serif" font-size="11" lengthAdjust="spacingAndGlyphs" textLength="73" x="1526.5" y="845.1502">dashboard.py</text><!--MD5=[abfe36fce877bb8fd52b28985d2531d3]
entity ORCH_coord--><rect fill="#ECEFF1" height="34.9819" style="stroke: #333333; stroke-width: 1.5;" width="99" x="589.5" y="407.3913"/><text fill="#000000" font-family="sans-serif" font-size="11" lengthAdjust="spacingAndGlyphs" textLength="79" x="599.5" y="429.1502">coordinator.py</text><!--MD5=[44748a290badea9d78db9e513e18d5d1]
entity ORCH_dbg--><rect fill="#ECEFF1" height="34.9819" style="stroke: #333333; stroke-width: 1.5;" width="99" x="597.5" y="298.8913"/><text fill="#000000" font-family="sans-serif" font-size="11" lengthAdjust="spacingAndGlyphs" textLength="79" x="607.5" y="320.6502">debug_view.py</text><!--MD5=[8640175f0dc1d2e6b4e51d0f80906987]
entity R_init--><rect fill="#ECEFF1" height="34.9819" style="stroke: #333333; stroke-width: 1.5;" width="73" x="631.5" y="179.8913"/><text fill="#000000" font-family="sans-serif" font-size="11" lengthAdjust="spacingAndGlyphs" textLength="53" x="641.5" y="201.6502">__init__.py</text><!--MD5=[f9a4d3bd3a6856799782d39c89ef5b2d]
entity R_cfg--><rect fill="#ECEFF1" height="34.9819" style="stroke: #333333; stroke-width: 1.5;" width="97" x="524.5" y="179.8913"/><text fill="#000000" font-family="sans-serif" font-size="11" lengthAdjust="spacingAndGlyphs" textLength="77" x="534.5" y="201.6502">config_flow.py</text><!--MD5=[029eaa835e666334db3d5104f58123e9]
entity R_sens--><rect fill="#ECEFF1" height="34.9819" style="stroke: #333333; stroke-width: 1.5;" width="71" x="364.5" y="179.8913"/><text fill="#000000" font-family="sans-serif" font-size="11" lengthAdjust="spacingAndGlyphs" textLength="51" x="374.5" y="201.6502">sensor.py</text><!--MD5=[fb26a7a1d1468a81e442adb4ba4b88f8]
entity R_sw--><rect fill="#ECEFF1" height="34.9819" style="stroke: #333333; stroke-width: 1.5;" width="69" x="445.5" y="179.8913"/><text fill="#000000" font-family="sans-serif" font-size="11" lengthAdjust="spacingAndGlyphs" textLength="49" x="455.5" y="201.6502">switch.py</text><!--MD5=[c9c462bca33439578669187073b1e66a]
entity HA--><rect fill="#BBDEFB" height="49.9638" style="stroke: #333333; stroke-width: 1.5;" width="133" x="378.5" y="399.8913"/><text fill="#000000" font-family="sans-serif" font-size="11" lengthAdjust="spacingAndGlyphs" textLength="80" x="388.5" y="421.6502">Home Assistant</text><text fill="#000000" font-family="sans-serif" font-size="11" lengthAdjust="spacingAndGlyphs" textLength="113" x="388.5" y="436.6321">(hass.states / services)</text><path d="M1374,687.3913 L1374,738.2513 A0,0 0 0 0 1374,738.2513 L1680,738.2513 A0,0 0 0 0 1680,738.2513 L1680,697.3913 L1670,687.3913 L1468.85,687.3913 L1203.85,583.9713 L1460.85,687.3913 L1374,687.3913 A0,0 0 0 0 1374,687.3913 " fill="#FFFDE7" style="stroke: #888888; stroke-width: 1.0;"/><path d="M1670,687.3913 L1670,697.3913 L1680,697.3913 L1670,687.3913 " fill="#FFFDE7" style="stroke: #888888; stroke-width: 1.0;"/><text fill="#000000" font-family="sans-serif" font-size="10" lengthAdjust="spacingAndGlyphs" textLength="285" x="1380" y="703.0813">Implemented as pure helpers; types in contract/models.py;</text><text fill="#000000" font-family="sans-serif" font-size="10" lengthAdjust="spacingAndGlyphs" textLength="210" x="1380" y="716.7013">exercised only by tests/test_profitability.py.</text><text fill="#000000" font-family="sans-serif" font-size="10" lengthAdjust="spacingAndGlyphs" textLength="239" x="1380" y="730.3213">See docs/MODULES.md §9 for the integration tail.</text><path d="M916.5,916.8913 L916.5,967.7513 A0,0 0 0 0 916.5,967.7513 L1171.5,967.7513 A0,0 0 0 0 1171.5,967.7513 L1171.5,926.8913 L1161.5,916.8913 L1048,916.8913 L1044,865.9813 L1040,916.8913 L916.5,916.8913 A0,0 0 0 0 916.5,916.8913 " fill="#FFFDE7" style="stroke: #888888; stroke-width: 1.0;"/><path d="M1161.5,916.8913 L1161.5,926.8913 L1171.5,926.8913 L1161.5,916.8913 " fill="#FFFDE7" style="stroke: #888888; stroke-width: 1.0;"/><text fill="#000000" font-family="sans-serif" font-size="10" lengthAdjust="spacingAndGlyphs" textLength="196" x="922.5" y="932.5813">base_load_missing.md items are merged</text><text fill="#000000" font-family="sans-serif" font-size="10" lengthAdjust="spacingAndGlyphs" textLength="197" x="922.5" y="946.2013">(translator, persistence, nodes, sensors).</text><text fill="#000000" font-family="sans-serif" font-size="10" lengthAdjust="spacingAndGlyphs" textLength="234" x="922.5" y="959.8213">Doc retained for 0.2 kW stub + local-tz rationale.</text><!--MD5=[1566685c561d7edd3a4935832ea53ec5]
link HA to I_price--><path d="M511.77,446.5913 C535.76,455.7613 562.25,468.0113 584,483.3913 C599.06,494.0413 613.14,508.6413 624.47,522.1013 " fill="none" id="HA-&gt;I_price" style="stroke: #555555; stroke-width: 1.0;"/><polygon fill="#555555" points="627.89,526.2413,625.222,516.7607,624.6975,522.3932,619.065,521.8687,627.89,526.2413" style="stroke: #555555; stroke-width: 1.0;"/><!--MD5=[ae6393a743bcf4edd13aff1e1629e489]
link HA to I_fc--><path d="M460.22,450.1013 C472.86,470.2013 491.02,499.0713 505.36,521.8813 " fill="none" id="HA-&gt;I_fc" style="stroke: #555555; stroke-width: 1.0;"/><polygon fill="#555555" points="508.17,526.3613,506.7448,516.6161,505.4995,522.1342,499.9814,520.8889,508.17,526.3613" style="stroke: #555555; stroke-width: 1.0;"/><!--MD5=[3e6e2b478357008d00cf3e0d4376fb2e]
link HA to I_gen--><path d="M378.26,429.8413 C322.93,435.5413 243.79,449.4513 183,483.3913 C165.77,493.0113 150.09,508.0613 137.79,522.1313 " fill="none" id="HA-&gt;I_gen" style="stroke: #555555; stroke-width: 1.0;"/><polygon fill="#555555" points="134.41,526.0613,143.3041,521.8312,137.664,522.265,137.2301,516.6249,134.41,526.0613" style="stroke: #555555; stroke-width: 1.0;"/><!--MD5=[2d54feaf4514e63683c1b76989a7da7e]
link HA to I_bat--><path d="M378.26,446.0013 C354.14,455.1413 327.56,467.5213 306,483.3913 C291.63,493.9713 278.53,508.5613 268.11,522.0313 " fill="none" id="HA-&gt;I_bat" style="stroke: #555555; stroke-width: 1.0;"/><polygon fill="#555555" points="264.96,526.1713,273.59,521.4254,267.9851,522.1902,267.2202,516.5853,264.96,526.1713" style="stroke: #555555; stroke-width: 1.0;"/><!--MD5=[ae2e24618bf73b2dda56fe331b14b986]
link HA to I_hh--><path d="M434.73,450.1013 C425.3,472.3413 411.3,505.3213 401.28,528.9413 " fill="none" id="HA-&gt;I_hh" style="stroke: #555555; stroke-width: 1.0;"/><polygon fill="#555555" points="399.21,533.8313,406.3965,527.0968,401.1554,529.2253,399.0269,523.9842,399.21,533.8313" style="stroke: #555555; stroke-width: 1.0;"/><!--MD5=[9a451ffa2d479b777048c9be3aad9220]
link HA to O_inv--><path d="M378.45,427.1313 C275.94,430.3513 85.81,441.9013 34,483.3913 C6.39,505.5013 6,522.5213 6,557.8913 C6,557.8913 6,557.8913 6,841.8913 C6,852.3513 1362.91,924.9713 1627.56,939.0313 " fill="none" id="HA-&gt;O_inv" style="stroke: #555555; stroke-width: 1.0;"/><polygon fill="#555555" points="1632.87,939.3213,1624.1001,934.8394,1627.8774,939.0503,1623.6664,942.8276,1632.87,939.3213" style="stroke: #555555; stroke-width: 1.0;"/><!--MD5=[3dcea8a5d25271153d2d9cb99c888761]
link R_init to HA--><path d="M654.19,215.1413 C646.82,223.2213 637.17,232.5113 627,238.8913 C607.82,250.9113 596.46,241.4913 579,255.8913 C538.43,289.3613 552.36,317.2313 519,357.8913 C507.62,371.7613 493.24,385.2813 480.19,396.4313 " fill="none" id="R_init-&gt;HA" style="stroke: #555555; stroke-width: 1.0;"/><polygon fill="#555555" points="476.19,399.8113,485.6489,397.0672,480.0123,396.588,480.4916,390.9515,476.19,399.8113" style="stroke: #555555; stroke-width: 1.0;"/><!--MD5=[07a90a184cff4a1249ec4637a7b0bd89]
link R_cfg to HA--><path d="M563.59,214.9713 C541.94,253.1013 488.41,347.4113 461.3,395.1813 " fill="none" id="R_cfg-&gt;HA" style="stroke: #555555; stroke-width: 1.0;"/><polygon fill="#555555" points="458.76,399.6513,466.6796,393.7965,461.2269,395.3022,459.7211,389.8495,458.76,399.6513" style="stroke: #555555; stroke-width: 1.0;"/><!--MD5=[7f85b408d966f688d29c6d6f8f02b75d]
link R_sens to HA--><path d="M403.31,214.9713 C410.89,252.9513 429.59,346.6513 439.15,394.6013 " fill="none" id="R_sens-&gt;HA" style="stroke: #555555; stroke-width: 1.0;"/><polygon fill="#555555" points="440.16,399.6513,442.3334,390.0453,439.1877,394.7468,434.4862,391.601,440.16,399.6513" style="stroke: #555555; stroke-width: 1.0;"/><!--MD5=[593f8d5161a3e0dd3d90dfb3d986726e]
link R_sw to HA--><path d="M477.43,214.9713 C471.53,252.9513 456.99,346.6513 449.55,394.6013 " fill="none" id="R_sw-&gt;HA" style="stroke: #555555; stroke-width: 1.0;"/><polygon fill="#555555" points="448.76,399.6513,454.1,391.3758,449.531,394.7111,446.1957,390.1422,448.76,399.6513" style="stroke: #555555; stroke-width: 1.0;"/><!--MD5=[e8e6ccb21c9d8136ae75cd32b4bc2682]
reverse link C_models to I_price--><path d="M1236.62,337.9613 C1229.62,345.1613 1221.05,352.7213 1212,357.8913 C1030.97,461.3113 949.05,395.4913 760,483.3913 C735.47,494.7913 710.4,511.5113 690.49,526.2213 " fill="none" id="C_models&lt;-I_price" style="stroke: #555555; stroke-width: 1.0; stroke-dasharray: 7.0,7.0;"/><polygon fill="#555555" points="1240.34,334.0213,1231.2515,337.8159,1236.906,337.6556,1237.0663,343.3102,1240.34,334.0213" style="stroke: #555555; stroke-width: 1.0;"/><!--MD5=[f0b0e8f64b39a3796e4947c690ebcd4f]
reverse link C_models to P_nodes--><path d="M1261.19,339.0513 C1279.57,398.8513 1321.56,568.4513 1244,669.3913 C1218.67,702.3513 1168.89,710.6913 1135.28,712.3213 " fill="none" id="C_models&lt;-P_nodes" style="stroke: #555555; stroke-width: 1.0; stroke-dasharray: 7.0,7.0;"/><polygon fill="#555555" points="1259.6,333.9413,1258.4565,343.7236,1261.0865,338.7153,1266.0948,341.3452,1259.6,333.9413" style="stroke: #555555; stroke-width: 1.0;"/><!--MD5=[5d54bc61075f8010f91b04be828b8868]
reverse link C_models to O_router--><path d="M1273.31,337.7113 C1280.18,344.4713 1288.16,351.8213 1296,357.8913 C1455.97,481.8813 1539.82,465.1413 1666,623.3913 C1708.54,676.7413 1717.58,705.7313 1703,772.3913 C1699.01,790.6613 1689.59,809.8913 1682.18,823.1313 " fill="none" id="C_models&lt;-O_router" style="stroke: #555555; stroke-width: 1.0; stroke-dasharray: 7.0,7.0;"/><polygon fill="#555555" points="1269.61,334.0213,1273.1641,343.2066,1273.1527,337.5497,1278.8095,337.5383,1269.61,334.0213" style="stroke: #555555; stroke-width: 1.0;"/><!--MD5=[3b37b2b56d8946f92d5081d5a747bd06]
reverse link C_models to ORCH_coord--><path d="M1238.26,337.9813 C1231.16,345.6713 1222.09,353.5813 1212,357.8913 C1191.44,366.6713 1033.25,363.7213 1011,365.8913 C979.49,368.9613 782.59,400.6113 688.7,415.8113 " fill="none" id="C_models&lt;-ORCH_coord" style="stroke: #555555; stroke-width: 1.0; stroke-dasharray: 7.0,7.0;"/><polygon fill="#555555" points="1241.59,334.2413,1232.6124,338.2914,1238.2602,337.9713,1238.5803,343.6191,1241.59,334.2413" style="stroke: #555555; stroke-width: 1.0;"/><!--MD5=[4546b69e79b2a78856dc537f3a36a56b]
reverse link C_const to ORCH_coord--><path d="M1137.76,324.7913 C1043.44,343.5313 795.03,392.8913 688.58,414.0413 " fill="none" id="C_const&lt;-ORCH_coord" style="stroke: #555555; stroke-width: 1.0; stroke-dasharray: 7.0,7.0;"/><polygon fill="#555555" points="1142.68,323.8113,1133.074,321.6379,1137.7755,324.7837,1134.6297,329.4852,1142.68,323.8113" style="stroke: #555555; stroke-width: 1.0;"/><!--MD5=[434dbf52895f435590b8ca044a042a07]
reverse link C_events to P_nodes--><path d="M1376.38,316.5313 C1461.13,315.6813 1653.13,319.1013 1694,365.8913 C1711.84,386.3113 1770.21,354.9013 1682,475.3913 C1545.94,661.2413 1238.13,701.4313 1135.23,709.7813 " fill="none" id="C_events&lt;-P_nodes" style="stroke: #555555; stroke-width: 1.0; stroke-dasharray: 7.0,7.0;"/><polygon fill="#555555" points="1371.2,316.5913,1380.2451,320.4882,1376.1997,316.5342,1380.1537,312.4887,1371.2,316.5913" style="stroke: #555555; stroke-width: 1.0;"/><!--MD5=[3c5b9c73ac8fa1f3ab7be5a991dac6df]
reverse link C_events to O_router--><path d="M1376.34,318.6013 C1462.34,321.8113 1660.53,332.6713 1718,365.8913 C1746.01,382.0813 1762,391.5313 1762,423.8913 C1762,423.8913 1762,423.8913 1762,713.8913 C1762,760.1313 1721.37,801.1113 1694.71,823.0313 " fill="none" id="C_events&lt;-O_router" style="stroke: #555555; stroke-width: 1.0; stroke-dasharray: 7.0,7.0;"/><polygon fill="#555555" points="1371.09,318.4113,1379.9353,322.7426,1376.0866,318.5969,1380.2323,314.7481,1371.09,318.4113" style="stroke: #555555; stroke-width: 1.0;"/><!--MD5=[3c531494caa4a55b82d7dd8648c2d96d]
link I_price to P_nodes--><path d="M701.86,591.4413 C719.61,600.8913 740.08,610.1313 760,615.3913 C778.93,620.3913 920.66,611.2313 936,623.3913 C952.65,636.5913 933.96,654.3913 949,669.3913 C978.74,699.0513 1027.37,708.4313 1061.6,711.1813 " fill="none" id="I_price-&gt;P_nodes" style="stroke: #555555; stroke-width: 1.0;"/><polygon fill="#555555" points="1066.96,711.5713,1058.2688,706.9385,1061.9728,711.2141,1057.6972,714.9181,1066.96,711.5713" style="stroke: #555555; stroke-width: 1.0;"/><text fill="#000000" font-family="sans-serif" font-size="11" lengthAdjust="spacingAndGlyphs" textLength="143" x="950" y="651.1502">PriceSeries via PricingNode</text><!--MD5=[441c0995466bd88cb3b08c08b2566d6c]
link I_fc to P_nodes--><path d="M552.22,591.5613 C561.12,600.8913 572,610.0413 584,615.3913 C611.85,627.8113 697.23,604.2913 721,623.3913 C737.56,636.7013 717.82,655.6213 734,669.3913 C782.61,710.7813 977.56,713.5013 1061.85,712.6613 " fill="none" id="I_fc-&gt;P_nodes" style="stroke: #555555; stroke-width: 1.0;"/><polygon fill="#555555" points="1067,712.6013,1057.9549,708.7044,1062.0003,712.6585,1058.0463,716.7039,1067,712.6013" style="stroke: #555555; stroke-width: 1.0;"/><text fill="#000000" font-family="sans-serif" font-size="11" lengthAdjust="spacingAndGlyphs" textLength="198" x="735" y="651.1502">GenerationSeries via GenerationNode</text><!--MD5=[5e33677d2a14a7694ea24360aa5ab257]
link I_gen to P_nodes--><path d="M95.75,591.5013 C86.39,616.0013 79.55,649.0913 99,669.3913 C132.87,704.7313 880.61,710.7813 1061.75,711.7313 " fill="none" id="I_gen-&gt;P_nodes" style="stroke: #555555; stroke-width: 1.0;"/><polygon fill="#555555" points="1066.94,711.7513,1057.963,707.7,1061.9401,711.7228,1057.9173,715.6998,1066.94,711.7513" style="stroke: #555555; stroke-width: 1.0;"/><text fill="#000000" font-family="sans-serif" font-size="11" lengthAdjust="spacingAndGlyphs" textLength="141" x="100" y="651.1502">ObservedGenerationSeries</text><!--MD5=[8b15ec3ceac0b3d677b915180115b9b1]
link I_bat to P_nodes--><path d="M243.1,591.4613 C243.03,619.9913 245.04,659.0613 256,669.3913 C285.65,697.3513 899.14,708.7713 1061.74,711.3213 " fill="none" id="I_bat-&gt;P_nodes" style="stroke: #555555; stroke-width: 1.0;"/><polygon fill="#555555" points="1066.87,711.4013,1057.9281,707.2732,1061.8705,711.3299,1057.8138,715.2724,1066.87,711.4013" style="stroke: #555555; stroke-width: 1.0;"/><text fill="#000000" font-family="sans-serif" font-size="11" lengthAdjust="spacingAndGlyphs" textLength="189" x="257" y="651.1502">BatteryStatus via BatteryStatusNode</text><!--MD5=[c0ef932cd60d176c5859c1a4f7e47608]
link I_hh to P_nodes--><path d="M417.25,584.1413 C428.53,595.1213 440.76,608.8813 449,623.3913 C459.49,641.8713 445.49,656.0213 462,669.3913 C508.55,707.1013 929.59,711.4413 1061.6,711.8713 " fill="none" id="I_hh-&gt;P_nodes" style="stroke: #555555; stroke-width: 1.0;"/><polygon fill="#555555" points="1066.92,711.8813,1057.9315,707.8556,1061.92,711.867,1057.9086,715.8556,1066.92,711.8813" style="stroke: #555555; stroke-width: 1.0;"/><text fill="#000000" font-family="sans-serif" font-size="11" lengthAdjust="spacingAndGlyphs" textLength="255" x="463" y="651.1502">HouseholdLoadHistory via BaseLoadProfileNode</text><!--MD5=[e2dd025cbd3353a828119e669fee802a]
reverse link P_engine to P_nodes--><path d="M975.57,578.5013 C1002.55,589.7613 1038.03,604.0713 1070,615.3913 C1081.4,619.4313 1088.55,613.8713 1096,623.3913 C1104.44,634.1713 1103.56,672.7513 1102.24,695.2513 " fill="none" id="P_engine&lt;-P_nodes" style="stroke: #555555; stroke-width: 1.0; stroke-dasharray: 7.0,7.0;"/><polygon fill="#555555" points="970.63,576.4413,977.3914,583.6026,975.2433,578.3695,980.4764,576.2214,970.63,576.4413" style="stroke: #555555; stroke-width: 1.0;"/><!--MD5=[8a6576ca9e30b98078e4b1ae602f575c]
link P_nodes to P_tariff--><path d="M1104.72,730.6213 C1109.72,753.1213 1118.62,793.1713 1124.14,818.0313 " fill="none" id="P_nodes-&gt;P_tariff" style="stroke: #555555; stroke-width: 1.0;"/><polygon fill="#555555" points="1125.27,823.0913,1127.2224,813.4379,1124.1853,818.2104,1119.4129,815.1734,1125.27,823.0913" style="stroke: #555555; stroke-width: 1.0;"/><!--MD5=[0f35fa5a61d2bb7906536fdea7ed2a8d]
link P_nodes to P_bat--><path d="M1118.32,730.4513 C1131.64,743.5213 1150.2,762.4813 1165,780.3913 C1175.18,792.7213 1185.56,807.3913 1193.45,819.0713 " fill="none" id="P_nodes-&gt;P_bat" style="stroke: #555555; stroke-width: 1.0;"/><polygon fill="#555555" points="1196.23,823.2413,1194.5274,813.5408,1193.44,819.0921,1187.8887,818.0047,1196.23,823.2413" style="stroke: #555555; stroke-width: 1.0;"/><!--MD5=[766faf6ec3e109fec858d55024bf518a]
link P_nodes to P_calc--><path d="M1135.12,724.2013 C1166.75,734.8613 1214.07,753.7213 1249,780.3913 C1263.05,791.1213 1275.64,806.6113 1284.54,819.1013 " fill="none" id="P_nodes-&gt;P_calc" style="stroke: #555555; stroke-width: 1.0;"/><polygon fill="#555555" points="1287.42,823.2113,1285.5561,813.5404,1284.5613,819.1091,1278.9926,818.1143,1287.42,823.2113" style="stroke: #555555; stroke-width: 1.0;"/><!--MD5=[bf7995c8aeccccab5ef71030697d2a1a]
link P_nodes to P_opt--><path d="M1066.68,716.9113 C1017.73,722.5913 926.63,738.3613 862,780.3913 C846.88,790.2213 834.1,806.1913 825.39,819.1113 " fill="none" id="P_nodes-&gt;P_opt" style="stroke: #555555; stroke-width: 1.0;"/><polygon fill="#555555" points="822.59,823.3613,830.8896,818.0588,825.347,819.1901,824.2156,813.6476,822.59,823.3613" style="stroke: #555555; stroke-width: 1.0;"/><!--MD5=[445a67cdecff4b364de43bc2174b22ba]
link P_nodes to P_cp--><path d="M1071.8,730.4313 C1050.02,743.1913 1019.86,761.7613 995,780.3913 C982.03,790.1113 968.51,801.7813 957.05,812.2013 " fill="none" id="P_nodes-&gt;P_cp" style="stroke: #555555; stroke-width: 1.0;"/><polygon fill="#555555" points="953.24,815.6813,962.5866,812.5763,956.9358,812.3137,957.1984,806.6629,953.24,815.6813" style="stroke: #555555; stroke-width: 1.0;"/><!--MD5=[eead7bd297f356788f521ac27f5ef15a]
link P_nodes to P_bl--><path d="M1093.43,730.6213 C1084.18,751.0813 1068.36,786.0513 1057.11,810.9213 " fill="none" id="P_nodes-&gt;P_bl" style="stroke: #555555; stroke-width: 1.0;"/><polygon fill="#555555" points="1054.92,815.7513,1062.2687,809.1941,1056.9772,811.1941,1054.9771,805.9026,1054.92,815.7513" style="stroke: #555555; stroke-width: 1.0;"/><!--MD5=[812b9557322faebcf3cc487129216c8d]
link P_prof to P_nodes--><path d="M1133.37,584.0613 C1128.91,595.8113 1123.78,610.2013 1120,623.3913 C1113.6,645.7013 1108.26,671.7313 1104.89,689.7613 " fill="none" id="P_prof-&gt;P_nodes" style="stroke: #FF5252; stroke-width: 1.0; stroke-dasharray: 7.0,7.0;"/><polygon fill="#FF5252" points="1103.9,695.0913,1109.4787,686.9748,1104.8145,690.1757,1101.6137,685.5115,1103.9,695.0913" style="stroke: #FF5252; stroke-width: 1.0;"/><text fill="#000000" font-family="sans-serif" font-size="11" font-weight="bold" lengthAdjust="spacingAndGlyphs" textLength="48" x="1159" y="636.1502">#FFCDD2</text><text fill="#000000" font-family="sans-serif" font-size="11" lengthAdjust="spacingAndGlyphs" textLength="110" x="1128" y="651.1321">no ProfitabilityNode,</text><text fill="#000000" font-family="sans-serif" font-size="11" lengthAdjust="spacingAndGlyphs" textLength="124" x="1121" y="666.114">no coordinator hookup</text><!--MD5=[63f47c6968f6ea15b9e80663b8e07fbc]
link P_nodes to O_router--><path d="M1135.29,716.9113 C1243.43,726.6313 1572.63,757.7813 1615,780.3913 C1632.27,789.6113 1647.36,805.9713 1657.67,819.2113 " fill="none" id="P_nodes-&gt;O_router" style="stroke: #555555; stroke-width: 1.0;"/><polygon fill="#555555" points="1660.72,823.2013,1658.4432,813.6193,1657.6881,819.2255,1652.0818,818.4704,1660.72,823.2013" style="stroke: #555555; stroke-width: 1.0;"/><text fill="#000000" font-family="sans-serif" font-size="11" lengthAdjust="spacingAndGlyphs" textLength="87" x="1589" y="769.1502">ControlEvent list</text><!--MD5=[f4ddb75491f3cea0a354a5c7aedf9998]
link O_router to O_inv--><path d="M1672,858.7713 C1672,875.4513 1672,901.0613 1672,919.3413 " fill="none" id="O_router-&gt;O_inv" style="stroke: #555555; stroke-width: 1.0;"/><polygon fill="#555555" points="1672,924.7613,1676,915.7613,1672,919.7613,1668,915.7613,1672,924.7613" style="stroke: #555555; stroke-width: 1.0;"/><!--MD5=[a425ffe798976d424066847ab07b4888]
link P_nodes to O_dash--><path d="M1135.15,722.7513 C1183.49,735.3413 1274.6,759.2313 1352,780.3913 C1406.44,795.2813 1468.61,812.8813 1511.28,825.0613 " fill="none" id="P_nodes-&gt;O_dash" style="stroke: #555555; stroke-width: 1.0;"/><polygon fill="#555555" points="1516.13,826.4413,1508.5752,820.1227,1511.3224,825.0677,1506.3774,827.8149,1516.13,826.4413" style="stroke: #555555; stroke-width: 1.0;"/><text fill="#000000" font-family="sans-serif" font-size="11" lengthAdjust="spacingAndGlyphs" textLength="157" x="1318" y="769.1502">DashboardData (pure builder)</text><!--MD5=[196969f2451fa330d8cc0aad6d8295d7]
link ORCH_coord to I_price--><path d="M640.52,442.6113 C642.31,462.2513 645.32,495.4213 647.66,521.1513 " fill="none" id="ORCH_coord-&gt;I_price" style="stroke: #555555; stroke-width: 1.0;"/><polygon fill="#555555" points="648.12,526.1913,651.2815,516.8637,647.6635,521.2122,643.3149,517.5942,648.12,526.1913" style="stroke: #555555; stroke-width: 1.0;"/><!--MD5=[b0c22e7032713b5bf8a1e6e4a76696bb]
link ORCH_coord to I_fc--><path d="M622.09,442.5113 C610.92,453.7313 596.16,469.0713 584,483.3913 C573.65,495.5813 562.95,509.4613 553.7,521.9113 " fill="none" id="ORCH_coord-&gt;I_fc" style="stroke: #555555; stroke-width: 1.0;"/><polygon fill="#555555" points="550.63,526.0713,559.1914,521.2028,553.5979,522.0475,552.7532,516.4541,550.63,526.0713" style="stroke: #555555; stroke-width: 1.0;"/><!--MD5=[d9f4dc50b6cbcce34a6befa75d86c970]
link ORCH_coord to I_gen--><path d="M598.5,442.3913 C575.1,451.1513 544.86,461.1613 517,466.3913 C443.96,480.1113 250.66,452.6313 183,483.3913 C164.44,491.8313 148.2,507.4013 135.87,522.1313 " fill="none" id="ORCH_coord-&gt;I_gen" style="stroke: #555555; stroke-width: 1.0;"/><polygon fill="#555555" points="132.49,526.2613,141.2778,521.8145,135.65,522.3864,135.078,516.7586,132.49,526.2613" style="stroke: #555555; stroke-width: 1.0;"/><!--MD5=[17ce76af2d77d72a9bbead8329f8a2b7]
link ORCH_coord to I_bat--><path d="M596.71,442.4113 C573.51,450.8413 544.04,460.5213 517,466.3913 C480.31,474.3513 470.41,472.2113 433,475.3913 C404.82,477.7913 331.21,470.5913 306,483.3913 C289.28,491.8813 275.36,507.1013 264.98,521.5813 " fill="none" id="ORCH_coord-&gt;I_bat" style="stroke: #555555; stroke-width: 1.0;"/><polygon fill="#555555" points="261.87,526.0513,270.289,520.9406,264.722,521.9445,263.7181,516.3774,261.87,526.0513" style="stroke: #555555; stroke-width: 1.0;"/><!--MD5=[6492c923fec4f79f4c7f433df2fd2a7b]
link ORCH_coord to I_hh--><path d="M589.58,442.4913 C542.59,458.3513 478.3,480.2913 473,483.3913 C451.6,495.9213 430.72,514.3913 415.14,529.8113 " fill="none" id="ORCH_coord-&gt;I_hh" style="stroke: #555555; stroke-width: 1.0;"/><polygon fill="#555555" points="411.29,533.6613,420.4895,530.1444,414.8327,530.1329,414.8441,524.4761,411.29,533.6613" style="stroke: #555555; stroke-width: 1.0;"/><!--MD5=[3de1b41f66da7d1794d2344fd59d4b48]
link ORCH_coord to P_engine--><path d="M675.81,442.4713 C730.53,467.1213 833.01,513.2913 890.38,539.1413 " fill="none" id="ORCH_coord-&gt;P_engine" style="stroke: #555555; stroke-width: 1.0;"/><polygon fill="#555555" points="895.11,541.2713,888.5528,533.9227,890.5528,539.2142,885.2613,541.2142,895.11,541.2713" style="stroke: #555555; stroke-width: 1.0;"/><!--MD5=[f618d388f17078dc9aea8e7351a82a6b]
link ORCH_coord to O_router--><path d="M688.53,426.9013 C829.09,430.2213 1228.24,443.0613 1352,483.3913 C1517.02,537.1713 1600.18,535.9613 1685,687.3913 C1708.3,728.9813 1692.56,787.1713 1681.05,818.2713 " fill="none" id="ORCH_coord-&gt;O_router" style="stroke: #555555; stroke-width: 1.0;"/><polygon fill="#555555" points="1679.25,823.0213,1686.1812,816.0243,1681.0228,818.3462,1678.701,813.1878,1679.25,823.0213" style="stroke: #555555; stroke-width: 1.0;"/><!--MD5=[90371872fbad78a27f3767fe3738c7d5]
link ORCH_coord to O_inv--><path d="M688.81,426.5513 C903.62,430.0313 1740,450.5013 1740,557.8913 C1740,557.8913 1740,557.8913 1740,841.8913 C1740,863.7813 1740.08,871.0113 1729,889.8913 C1721.91,901.9713 1711.04,912.8113 1700.69,921.3913 " fill="none" id="ORCH_coord-&gt;O_inv" style="stroke: #555555; stroke-width: 1.0;"/><polygon fill="#555555" points="1696.6,924.6913,1706.1131,922.1415,1700.4876,921.547,1701.0821,915.9215,1696.6,924.6913" style="stroke: #555555; stroke-width: 1.0;"/><!--MD5=[9eab362e4af1e30a1ac3b160bd500d82]
reverse link ORCH_dbg to ORCH_coord--><path d="M621.84,337.6313 C613.93,345.5213 606.18,355.2313 602,365.8913 C596.11,380.9013 606.72,396.2113 618.07,407.3313 " fill="none" id="ORCH_dbg&lt;-ORCH_coord" style="stroke: #555555; stroke-width: 1.0; stroke-dasharray: 7.0,7.0;"/><polygon fill="#555555" points="625.71,333.9113,616.4482,337.2608,622.1039,337.3749,621.9899,343.0306,625.71,333.9113" style="stroke: #555555; stroke-width: 1.0;"/><text fill="#000000" font-family="sans-serif" font-size="11" lengthAdjust="spacingAndGlyphs" textLength="151" x="603" y="378.6502">primary/secondary snapshot</text><!--MD5=[fa98721eeb75fa177e843cb1c6d07d04]
link R_init to ORCH_coord--><path d="M686.85,215.1213 C722.34,248.6613 792.16,325.7313 753,381.8913 C739.48,401.2713 715.97,411.7313 693.79,417.3713 " fill="none" id="R_init-&gt;ORCH_coord" style="stroke: #555555; stroke-width: 1.0;"/><polygon fill="#555555" points="688.79,418.5713,698.4758,420.3562,693.6514,417.4023,696.6053,412.578,688.79,418.5713" style="stroke: #555555; stroke-width: 1.0;"/><!--MD5=[7255f9dc29c4bc91843b18b461e8bb85]
link R_init to ORCH_dbg--><path d="M665.04,214.9113 C661.34,235.5213 655,270.8313 650.91,293.6313 " fill="none" id="R_init-&gt;ORCH_dbg" style="stroke: #555555; stroke-width: 1.0;"/><polygon fill="#555555" points="650.02,298.5813,655.5529,290.4335,650.9069,293.6606,647.6798,289.0145,650.02,298.5813" style="stroke: #555555; stroke-width: 1.0;"/><!--MD5=[50f5e8f57080ab088d8cfedfd5cbe6a4]
link R_sens to ORCH_coord--><path d="M409.13,215.0913 C429.23,251.4213 477.47,336.1413 502,357.8913 C525.8,379.0013 557.55,394.8613 584.49,405.7313 " fill="none" id="R_sens-&gt;ORCH_coord" style="stroke: #555555; stroke-width: 1.0;"/><polygon fill="#555555" points="589.46,407.7013,582.5632,400.6704,584.8108,405.8616,579.6196,408.1092,589.46,407.7013" style="stroke: #555555; stroke-width: 1.0;"/><!--MD5=[e96a126f57dab585efb6032ea0d5c046]
link R_sw to ORCH_coord--><path d="M486.34,214.9613 C500.24,249.5613 536.36,330.5513 588,381.8913 C595.76,389.6013 604.82,397.4013 613.13,404.1513 " fill="none" id="R_sw-&gt;ORCH_coord" style="stroke: #555555; stroke-width: 1.0;"/><polygon fill="#555555" points="617.14,407.3713,612.6227,398.6195,613.2398,404.2426,607.6168,404.8598,617.14,407.3713" style="stroke: #555555; stroke-width: 1.0;"/><!--MD5=[9ba5f5fd581d7b8ab7a3e7af99a898f2]
link R_cfg to ORCH_coord--><path d="M571.58,215.0013 C569.45,248.6513 568.45,326.4113 598,381.8913 C602.2,389.7813 608.35,397.2013 614.6,403.5413 " fill="none" id="R_cfg-&gt;ORCH_coord" style="stroke: #555555; stroke-width: 1.0;"/><polygon fill="#555555" points="618.5,407.3513,614.8348,398.2099,614.9148,403.8661,609.2585,403.9461,618.5,407.3513" style="stroke: #555555; stroke-width: 1.0;"/><!--MD5=[e9b7207800e9e1cf8a8780480e9e1135]
@startuml sunSale_modules
title sunSale — Module map with refactor status

skinparam packageStyle rectangle
skinparam defaultFontSize 11
skinparam nodesep 10
skinparam ranksep 35
skinparam shadowing false

skinparam rectangle {
  FontSize 11
  BorderColor #333
}
skinparam package {
  BorderColor #444
  FontSize 12
  FontStyle bold
}
skinparam note {
  BackgroundColor #FFFDE7
  BorderColor #888
  FontSize 10
}
skinparam ArrowColor #555


legend top left
  | Colour | Status | Meaning |
  |<#C8E6C9>| refactored | dedicated reference doc under docs/ |
  |<#FFCDD2>| missing | partial integration; *_missing.md exists or needed |
  |<#ECEFF1>| old | pre-refactor, no doc, behaviour read from code |
  |<#BBDEFB>| external | Home Assistant runtime |
endlegend

rectangle "Home Assistant\n(hass.states / services)" as HA #BBDEFB

package "contract/  (pure data — no internal deps)" {
  rectangle "const.py"  as C_const  #ECEFF1
  rectangle "events.py" as C_events #ECEFF1
  rectangle "models.py" as C_models #ECEFF1
}

package "inbound/  (HA-read + normalise)" {
  rectangle "pricing.py\n[refactored]\nNordpoolTranslator"        as I_price   #C8E6C9
  rectangle "forecast.py\n[refactored]\nSolarTranslator"          as I_fc      #C8E6C9
  rectangle "generation.py\n[refactored]\nGenerationTranslator"   as I_gen     #C8E6C9
  rectangle "battery.py\n[refactored]\nBatteryTranslator"         as I_bat     #C8E6C9
  rectangle "household_load.py\nHouseholdLoadTranslator"          as I_hh      #ECEFF1
}

package "pipeline/  (pure-Python DAG)" {
  rectangle "dag_engine.py"      as P_engine  #ECEFF1
  rectangle "nodes.py"           as P_nodes   #ECEFF1
  rectangle "tariff.py"          as P_tariff  #ECEFF1
  rectangle "battery.py"         as P_bat     #ECEFF1
  rectangle "calculator.py"      as P_calc    #ECEFF1
  rectangle "optimizer.py"       as P_opt     #ECEFF1
  rectangle "charging_profile.py\n[refactored]" as P_cp  #C8E6C9
  rectangle "base_load.py\n[refactored]"        as P_bl  #C8E6C9
  rectangle "profitability.py\n[missing — not wired]" as P_prof #FFCDD2
}

package "outbound/  (HA-write + presentation)" {
  rectangle "event_router.py" as O_router #ECEFF1
  rectangle "inverter.py"     as O_inv    #ECEFF1
  rectangle "dashboard.py"    as O_dash   #ECEFF1
}

package "orchestration/  (glue)" {
  rectangle "coordinator.py" as ORCH_coord #ECEFF1
  rectangle "debug_view.py"  as ORCH_dbg   #ECEFF1
}

package "HA root entry points" {
  rectangle "__init__.py"   as R_init   #ECEFF1
  rectangle "config_flow.py" as R_cfg   #ECEFF1
  rectangle "sensor.py"     as R_sens   #ECEFF1
  rectangle "switch.py"     as R_sw     #ECEFF1
}


HA - -> I_price
HA - -> I_fc
HA - -> I_gen
HA - -> I_bat
HA - -> I_hh
HA - -> O_inv
R_init - -> HA
R_cfg  - -> HA
R_sens - -> HA
R_sw   - -> HA

C_models <.. I_price
C_models <.. P_nodes
C_models <.. O_router
C_models <.. ORCH_coord
C_const  <.. ORCH_coord
C_events <.. P_nodes
C_events <.. O_router

I_price  - -> P_nodes  : "PriceSeries via PricingNode"
I_fc     - -> P_nodes  : "GenerationSeries via GenerationNode"
I_gen    - -> P_nodes  : "ObservedGenerationSeries"
I_bat    - -> P_nodes  : "BatteryStatus via BatteryStatusNode"
I_hh     - -> P_nodes  : "HouseholdLoadHistory via BaseLoadProfileNode"

P_engine <.. P_nodes
P_nodes  - -> P_tariff
P_nodes  - -> P_bat
P_nodes  - -> P_calc
P_nodes  - -> P_opt
P_nodes  - -> P_cp
P_nodes  - -> P_bl

P_prof ..> P_nodes #FF5252 : "**#FFCDD2**\nno ProfitabilityNode,\nno coordinator hookup"

P_nodes - -> O_router : "ControlEvent list"
O_router - -> O_inv
P_nodes - -> O_dash    : "DashboardData (pure builder)"

ORCH_coord - -> I_price
ORCH_coord - -> I_fc
ORCH_coord - -> I_gen
ORCH_coord - -> I_bat
ORCH_coord - -> I_hh
ORCH_coord - -> P_engine
ORCH_coord - -> O_router
ORCH_coord - -> O_inv
ORCH_dbg   <.. ORCH_coord : "primary/secondary snapshot"

R_init  - -> ORCH_coord
R_init  - -> ORCH_dbg
R_sens  - -> ORCH_coord
R_sw    - -> ORCH_coord
R_cfg   - -> ORCH_coord

note bottom of P_prof
  Implemented as pure helpers; types in contract/models.py;
  exercised only by tests/test_profitability.py.
  See docs/MODULES.md §9 for the integration tail.
end note

note bottom of P_bl
  base_load_missing.md items are merged
  (translator, persistence, nodes, sensors).
  Doc retained for 0.2 kW stub + local-tz rationale.
end note

@enduml

PlantUML version 1.2020.02(Sun Mar 01 12:22:07 EET 2020)
(GPL source distribution)
Java Runtime: OpenJDK Runtime Environment
JVM: OpenJDK 64-Bit Server VM
Java Version: 21.0.10+7-Ubuntu-124.04
Operating System: Linux
Default Encoding: UTF-8
Language: en
Country: US
--></g></svg>